<?xml version="1.0" encoding="UTF-8" standalone="no"?>
<!-- Created with Inkscape (http://www.inkscape.org/) -->

<svg
   xmlns:dc="http://purl.org/dc/elements/1.1/"
   xmlns:cc="http://creativecommons.org/ns#"
   xmlns:rdf="http://www.w3.org/1999/02/22-rdf-syntax-ns#"
   xmlns:svg="http://www.w3.org/2000/svg"
   xmlns="http://www.w3.org/2000/svg"
   version="1.1"
   width="73.648201mm"
   height="39.210602mm"
   viewBox="0 0 73.6482 39.2106"
   id="svg2"
   xml:space="preserve"
   style="fill-rule:evenodd"><metadata
   id="metadata98"><rdf:RDF><cc:Work
       rdf:about=""><dc:format>image/svg+xml</dc:format><dc:type
         rdf:resource="http://purl.org/dc/dcmitype/StillImage" /><dc:title></dc:title></cc:Work></rdf:RDF></metadata>
 <defs
   id="defs4">
  <style
   type="text/css"
   id="style6" />
 </defs>
 <g
   id="Layer_x0020_1">
  <metadata
   id="CorelCorpID_0Corel-Layer" />
  <g
   id="_414716448">
   <path
   d="m 36.8241,14.2106 c 20.3339,0 36.8241,5.5976 36.8241,12.5 0,6.9024 -16.4902,12.5 -36.8241,12.5 C 16.4901,39.2106 0,33.613 0,26.7106 c 0,-6.9024 16.4901,-12.5 36.8241,-12.5 z"
   id="_373575408"
   style="fill:#0e9543" />
   <path
   d="M 37.215,25.8171 C 33.9987,21.8552 21.6556,25.5073 11.8964,27.5922 24.662,24.8218 36.8531,27.1189 37.215,25.8171 z"
   id="_373575312"
   style="fill:#ecbd36" />
   <path
   d="m 65.1005,25.3652 c -3.2163,3.9619 -15.5594,0.3098 -25.3186,-1.7751 12.7656,2.7704 24.9567,0.4733 25.3186,1.7751 z"
   id="_373575216"
   style="fill:#ecbd36" />
   <path
   d="M 71.261,27.5558 C 68.0447,31.5177 55.7016,27.8656 45.9424,25.7807 58.708,28.5511 70.8991,26.254 71.261,27.5558 z"
   id="_373575120"
   style="fill:#ecbd36" />
   <path
   d="M 3.8037,30.4729 C 7.02,34.4348 19.3631,30.7827 29.1223,28.6978 16.3567,31.4682 4.1656,29.1711 3.8037,30.4729 z"
   id="_379693688"
   style="fill:#ecbd36" />
   <path
   d="m 8.8503,31.2856 c 3.2163,3.9619 15.5594,0.3098 25.3186,-1.7751 -12.7656,2.7704 -24.9567,0.4733 -25.3186,1.7751 z"
   id="_379693592"
   style="fill:#ecbd36" />
   <path
   d="m 14.5721,10.15 c 0.0174,0.0345 0.0608,0.0861 0.1302,0.1548 0.0607,0.0601 0.0978,0.1163 0.1112,0.1686 0.183,0.242 0.3508,0.5507 0.5033,0.9263 0.1253,0.3303 0.2497,0.6603 0.3732,0.99 -0.2692,-0.2358 -0.5581,-0.4091 -0.8664,-0.5198 -0.2484,-0.0892 -0.4385,-0.2598 -0.5695,-0.5115 -0.1309,-0.2517 -0.1551,-0.5018 -0.0734,-0.7508 0.0556,-0.1694 0.1432,-0.314 0.2629,-0.4336 l 0.1285,-0.024 z m 0.8267,-0.217 c 0.2351,0.0771 0.4141,0.2028 0.5369,0.3772 0.1013,0.1462 0.1791,0.3527 0.2333,0.6194 0.0477,0.234 0.012,0.5325 -0.1071,0.8956 -0.0119,0.0363 -0.0315,0.0902 -0.0579,0.1619 -0.0264,0.0718 -0.0452,0.126 -0.0571,0.1623 -0.009,0.0276 -0.014,0.0691 -0.0143,0.1255 -4e-4,0.0564 -0.0045,0.0981 -0.013,0.124 L 15.898,12.3947 c -0.0259,-0.0085 -0.0428,-0.0446 -0.0505,-0.1085 -0.0032,-0.0604 -0.0091,-0.1504 -0.0177,-0.27 -0.0314,-0.3072 -0.107,-0.6049 -0.2269,-0.8931 -0.0879,-0.2108 -0.1831,-0.3847 -0.2856,-0.5217 -0.0666,-0.0889 -0.197,-0.2341 -0.3913,-0.4358 -0.0197,-0.0217 -0.0469,-0.0757 -0.0819,-0.1618 0.0359,-0.0687 0.1209,-0.1059 0.255,-0.1117 0.1064,-0.0034 0.2063,0.0102 0.2997,0.0409 z m -0.5005,2.4095 c 0.3008,0.0987 0.5418,0.2515 0.7229,0.4583 C 15.38,12.783 15.1749,12.798 15.006,12.846 c -0.0741,0.0217 -0.2971,0.1352 -0.669,0.3407 -0.3088,0.1706 -0.5098,0.2406 -0.6032,0.2099 -0.121,-0.0397 -0.2048,-0.1227 -0.2515,-0.2491 -0.042,-0.1171 -0.0425,-0.238 -0.0017,-0.3625 0.0891,-0.2714 0.2871,-0.4401 0.594,-0.5059 0.2552,-0.0542 0.5298,-0.033 0.8237,0.0634 z m 2.7258,-1.2601 c 0.1227,0.0403 0.228,0.1074 0.3159,0.2014 0.1047,0.1128 0.1386,0.2255 0.1018,0.3378 -0.0165,0.0502 -0.0476,0.0955 -0.0935,0.136 -0.0241,0.0093 -0.2477,0.0691 -0.6706,0.1792 -0.2707,0.0721 -0.4777,0.1689 -0.6209,0.2904 -0.0516,0.0462 -0.1295,0.1145 -0.2338,0.2048 -0.0877,0.0688 -0.1819,0.1078 -0.2826,0.1169 l -0.0173,-0.0171 c 0.1636,-0.201 0.2579,-0.3396 0.2828,-0.4157 0.0097,-0.0293 0.0216,-0.0743 0.0362,-0.1336 0.0147,-0.0594 0.0272,-0.1031 0.0368,-0.1325 0.093,-0.2836 0.2324,-0.4983 0.4182,-0.6441 0.2167,-0.1702 0.459,-0.2114 0.727,-0.1235 z M 15.794,13.027 c 0.0041,0.0167 0.0039,0.0319 -7e-4,0.0458 -0.0062,0.019 -0.0303,0.0398 -0.0722,0.0624 -0.051,0.0273 -0.0823,0.0467 -0.0938,0.0583 -0.178,0.1867 -0.3149,0.4434 -0.4106,0.7701 l -0.0449,0.0054 0.0209,0.0413 c -0.0575,0.1229 -0.1433,0.2326 -0.2573,0.3292 -0.1204,0.1042 -0.2444,0.1669 -0.372,0.1882 -0.1115,0.0189 -0.2538,0 -0.4266,-0.0567 -0.1418,-0.0465 -0.2544,-0.1294 -0.3378,-0.2487 -0.0915,-0.1296 -0.1143,-0.2644 -0.0684,-0.4045 0.0108,-0.0328 0.0268,-0.0639 0.0479,-0.0934 0.0247,-0.011 0.1698,-0.0448 0.4354,-0.1013 0.1977,-0.0424 0.4482,-0.1373 0.7513,-0.2849 0.3691,-0.1796 0.6143,-0.2906 0.7355,-0.3332 0.0264,10e-4 0.0492,0.0047 0.0682,0.0109 0,0 0.0084,0.0037 0.0251,0.0111 z m 2.3315,-1.0303 c 0.0842,0.1636 0.0937,0.3448 0.0285,0.5436 -0.0664,0.2023 -0.1825,0.349 -0.3475,0.4404 -0.165,0.0914 -0.3473,0.1043 -0.5479,0.0385 -0.083,-0.0272 -0.1943,-0.0905 -0.3332,-0.1897 -0.1388,-0.0992 -0.2225,-0.1535 -0.2519,-0.1631 -0.0294,-0.0096 -0.1065,-0.0052 -0.2312,0.0132 L 16.4274,12.646 c 0.0526,-0.0785 0.2863,-0.178 0.7012,-0.2985 0.5234,-0.1538 0.7941,-0.2345 0.8127,-0.2418 0.0187,-0.0072 0.0502,-0.0333 0.0937,-0.0784 0.0292,-0.0306 0.0533,-0.0428 0.0724,-0.0366 l 0.0181,0.006 z m -1.9611,0.8818 c 0.2487,0.3919 0.4015,0.8776 0.4583,1.4574 0.0126,0.119 0.0114,0.2747 -0.0038,0.4669 -0.0163,0.2015 -0.0412,0.3532 -0.0747,0.4552 -0.0397,0.121 -0.0994,0.224 -0.1789,0.309 -0.0512,0.01 -0.1451,-0.0074 -0.2817,-0.0522 -0.0172,-0.0057 -0.0437,-0.0124 -0.0797,-0.0195 -0.036,-0.007 -0.062,-0.0126 -0.0775,-0.0177 -0.0173,-0.0057 -0.0245,-0.0129 -0.0217,-0.0215 0.0046,-0.0081 0.0129,-0.0159 0.0249,-0.0234 0.0649,-0.04 0.1583,-0.1089 0.2804,-0.2068 0.1473,-0.8517 0.0633,-1.5935 -0.2521,-2.2256 0.0276,-0.0024 0.0629,-0.0195 0.1059,-0.0514 0.0516,-0.0405 0.0851,-0.064 0.1006,-0.0704 z"
   id="_379693496"
   style="fill:#0e9543" />
   <path
   d="m 59.1896,8.5785 c -0.0174,0.0345 -0.0608,0.0861 -0.1302,0.1548 -0.0607,0.0601 -0.0978,0.1163 -0.1112,0.1686 -0.183,0.242 -0.3508,0.5507 -0.5033,0.9263 -0.1253,0.3303 -0.2497,0.6603 -0.3732,0.99 0.2692,-0.2358 0.5581,-0.4091 0.8664,-0.5198 0.2484,-0.0892 0.4385,-0.2598 0.5695,-0.5115 C 59.6385,9.5352 59.6627,9.2851 59.581,9.0361 59.5254,8.8667 59.4378,8.7221 59.3181,8.6025 l -0.1285,-0.024 z m -0.8267,-0.217 c -0.2351,0.0771 -0.4141,0.2028 -0.5369,0.3772 -0.1013,0.1462 -0.1791,0.3527 -0.2333,0.6194 -0.0477,0.234 -0.012,0.5325 0.1071,0.8956 0.0119,0.0363 0.0315,0.0902 0.0579,0.1619 0.0264,0.0718 0.0452,0.126 0.0571,0.1623 0.009,0.0276 0.014,0.0691 0.0143,0.1255 4e-4,0.0564 0.0045,0.0981 0.013,0.124 l 0.0216,-0.0042 c 0.0259,-0.0085 0.0428,-0.0446 0.0505,-0.1085 0.0032,-0.0604 0.0091,-0.1504 0.0177,-0.27 0.0314,-0.3072 0.107,-0.6049 0.2269,-0.8931 C 58.2467,9.3408 58.3419,9.1669 58.4444,9.0299 58.511,8.941 58.6414,8.7958 58.8357,8.5941 58.8554,8.5724 58.8826,8.5184 58.9176,8.4323 58.8817,8.3636 58.7967,8.3264 58.6626,8.3206 58.5562,8.3172 58.4563,8.3308 58.3629,8.3615 z m 0.5005,2.4095 c -0.3008,0.0987 -0.5418,0.2515 -0.7229,0.4583 0.2412,-0.0178 0.4463,-0.0028 0.6152,0.0452 0.0741,0.0217 0.2971,0.1352 0.669,0.3407 0.3088,0.1706 0.5098,0.2406 0.6032,0.2099 0.121,-0.0397 0.2048,-0.1227 0.2515,-0.2491 0.042,-0.1171 0.0425,-0.238 0.0017,-0.3625 -0.0891,-0.2714 -0.2871,-0.4401 -0.594,-0.5059 -0.2552,-0.0542 -0.5298,-0.033 -0.8237,0.0634 z M 56.1376,9.5109 c -0.1227,0.0403 -0.228,0.1074 -0.3159,0.2014 -0.1047,0.1128 -0.1386,0.2255 -0.1018,0.3378 0.0165,0.0502 0.0476,0.0955 0.0935,0.136 0.0241,0.0093 0.2477,0.0691 0.6706,0.1792 0.2707,0.0721 0.4777,0.1689 0.6209,0.2904 0.0516,0.0462 0.1295,0.1145 0.2338,0.2048 0.0877,0.0688 0.1819,0.1078 0.2826,0.1169 l 0.0173,-0.0171 C 57.475,10.7593 57.3807,10.6207 57.3558,10.5446 57.3461,10.5153 57.3342,10.4703 57.3196,10.411 57.3049,10.3516 57.2924,10.3079 57.2828,10.2785 57.1898,9.9949 57.0504,9.7802 56.8646,9.6344 56.6479,9.4642 56.4056,9.423 56.1376,9.5109 z m 1.8301,1.9446 c -0.0041,0.0167 -0.0039,0.0319 7e-4,0.0458 0.0062,0.019 0.0303,0.0398 0.0722,0.0624 0.051,0.0273 0.0823,0.0467 0.0938,0.0583 0.178,0.1867 0.3149,0.4434 0.4106,0.7701 l 0.0449,0.0054 -0.0209,0.0413 c 0.0575,0.1229 0.1433,0.2326 0.2573,0.3292 0.1204,0.1042 0.2444,0.1669 0.372,0.1882 0.1115,0.0189 0.2538,0 0.4266,-0.0567 0.1418,-0.0465 0.2544,-0.1294 0.3378,-0.2487 0.0915,-0.1296 0.1143,-0.2644 0.0684,-0.4045 -0.0108,-0.0328 -0.0268,-0.0639 -0.0479,-0.0934 -0.0247,-0.011 -0.1698,-0.0448 -0.4354,-0.1013 -0.1977,-0.0424 -0.4482,-0.1373 -0.7513,-0.2849 -0.3691,-0.1796 -0.6143,-0.2906 -0.7355,-0.3332 -0.0264,10e-4 -0.0492,0.0047 -0.0682,0.0109 0,0 -0.0084,0.0037 -0.0251,0.0111 z m -2.3315,-1.0303 c -0.0842,0.1636 -0.0937,0.3448 -0.0285,0.5436 0.0664,0.2023 0.1825,0.349 0.3475,0.4404 0.165,0.0914 0.3473,0.1043 0.5479,0.0385 0.083,-0.0272 0.1943,-0.0905 0.3332,-0.1897 0.1388,-0.0992 0.2225,-0.1535 0.2519,-0.1631 0.0294,-0.0096 0.1065,-0.0052 0.2312,0.0132 l 0.0149,-0.0336 C 57.2817,10.996 57.048,10.8965 56.6331,10.776 56.1097,10.6222 55.839,10.5415 55.8204,10.5342 55.8017,10.527 55.7702,10.5009 55.7267,10.4558 55.6975,10.4252 55.6734,10.413 55.6543,10.4192 l -0.0181,0.006 z m 1.9611,0.8818 c -0.2487,0.3919 -0.4015,0.8776 -0.4583,1.4574 -0.0126,0.119 -0.0114,0.2747 0.0038,0.4669 0.0163,0.2015 0.0412,0.3532 0.0747,0.4552 0.0397,0.121 0.0994,0.224 0.1789,0.309 0.0512,0.01 0.1451,-0.0074 0.2817,-0.0522 0.0172,-0.0057 0.0437,-0.0124 0.0797,-0.0195 0.036,-0.007 0.062,-0.0126 0.0775,-0.0177 0.0173,-0.0057 0.0245,-0.0129 0.0217,-0.0215 -0.0046,-0.0081 -0.0129,-0.0159 -0.0249,-0.0234 -0.0649,-0.04 -0.1583,-0.1089 -0.2804,-0.2068 -0.1473,-0.8517 -0.0633,-1.5935 0.2521,-2.2256 -0.0276,-0.0024 -0.0629,-0.0195 -0.1059,-0.0514 -0.0516,-0.0405 -0.0851,-0.064 -0.1006,-0.0704 z"
   id="_379693400"
   style="fill:#0e9543" />
   <rect
   width="34.236198"
   height="13.3703"
   x="19.2435"
   y="7.6368799"
   id="_379693280"
   style="fill:#fbffff" />
   <path
   d="m 32.6993,0.1053 0.2457,0 0.1053,0.0351 0.0351,0.0351 0.0351,0.0351 0.0351,0.0351 0.0351,0.035 0,0.0702 0.0702,0 0.0702,0 0.0351,-0.0351 0.0351,-0.0351 0.0351,-0.035 0.0351,-0.0351 0.1404,0 0.035,0.0351 0.0352,0.035 0.035,0 0.0702,-0.035 0.0351,-0.0351 0.0702,-0.0351 0.1054,0 0.0351,0.0351 0.0351,0.0351 0.0351,0.035 0,0.0702 0.1053,0 0,-0.0702 0.035,-0.035 0.0702,0 0.0351,0.035 0,0.1053 -0.0351,0.3159 -0.0351,0.0702 -0.0351,0.0701 -0.035,0.1053 -0.0351,0.0702 -0.0351,0.0351 -0.0351,0.1053 -0.0351,0.0351 -0.0351,0.0702 -0.0351,0.0702 -0.0351,0.035 0,0.0702 0.0351,0.0702 0.0351,0.0351 0.0702,0 0.0351,-0.0351 0.1052,-0.0351 0.0702,-0.0351 0.0702,-0.0351 0.1053,-0.0351 0.0702,-0.035 0.1053,-0.0351 0.2106,0 -0.0351,-0.1053 -0.0351,-0.1404 0,-0.4562 0.0351,-0.1053 0.0351,-0.0702 0.0351,-0.0702 0.0351,-0.0702 0.0351,-0.035 L 35.0158,0.2106 35.0509,0.1755 35.086,0.1404 35.1211,0.1053 35.1562,0.0702 35.2264,0.0351 35.2615,0 l 0.1754,0 0.0702,0.0351 0.0351,0.0351 0.0351,0.0351 0.0351,0.0351 0.0352,0.0351 0.1053,0 0.0702,-0.0351 0.2456,0 0.1053,0.0351 0.1755,0.0351 0.1053,0 0.0351,-0.0351 0.0702,-0.0351 0.2106,0 0.0351,0.0351 0.0351,0.0702 0.2457,0.035 0,0.0702 0.035,0 0.2107,0.0351 0,0.1755 -0.0352,0 0,0.1053 -0.0351,0.0702 -0.0351,0.0701 -0.0351,0.0702 -0.0351,0.0351 -0.0351,0.0702 -0.035,0.0351 -0.0351,0.0351 -0.0351,0.0702 -0.0351,0.0351 -0.0351,0.0351 -0.0351,0.0351 -0.0351,0.0351 -0.0351,0.0351 -0.0351,0.0351 -0.0351,0.035 -0.0351,0.0351 -0.0404,0.0685 0.0755,-0.0334 0.1053,-0.0351 0.1053,0 0.0351,0.0351 0.0351,0.0702 c 0.2186,0.4373 0.6239,0 0.9125,0 -0.197,-0.5911 -0.2095,-1.0709 0.4563,-1.4037 0.4946,0 0.2423,0.1019 0.4913,0.3509 L 38.9818,0.4211 39.0521,0.386 39.1223,0.3509 39.2276,0.3158 c 1.2958,-0.3379 2.1047,0.2202 0.9476,1.0178 l -0.0401,0.1043 c 0.1534,9e-4 1.0228,0.1413 1.093,0.1764 0.0345,0.0344 -0.4796,-0.8987 0.2494,-1.2256 0.393,-0.1762 0.886,0.0426 1.3583,0.0674 0.8712,0.0457 1.7209,-0.3494 0.5333,1.1933 L 43.334,1.6845 43.2936,1.7529 43.3691,1.7196 c 0.4567,0 0.5301,-0.0015 0.9477,-0.1404 l 0,-0.0351 c -0.4106,-0.891 0.3017,-1.6249 1.3048,-1.2796 0.4283,0.1475 0.78,0.0674 0.9541,0.5588 0.0984,0.2777 -0.3284,0.6401 -0.6795,0.8261 2.4134,0.866 8.0187,4.7655 9.1269,6.8827 0.2764,0.5279 -1.113,1.1895 -1.3001,1.2237 l -0.1053,0 -0.0682,-0.1411 -0.1759,0.0437 -0.013,-0.0371 0.249,-0.0969 -0.0787,-0.3258 -0.1228,-0.0764 -0.0599,0.1135 0.1368,0.27 -0.113,-6e-4 0,0.0401 C 53.1186,9.4111 53.2278,9.0805 53.0626,9.142 c -0.1082,0.0402 0.1322,0.4183 0.169,0.4734 l -0.2456,0 C 52.9714,9.4415 52.8349,9.1577 52.7052,9.089 l 0.1216,0.4156 C 52.5574,9.5158 52.3486,9.7558 52.1085,9.7558 52.0364,9.7558 51.9756,9.7151 51.933,9.6856 51.8543,9.6673 51.8523,9.6505 51.7575,9.6505 l -0.0702,0 c -0.1165,0 -0.0732,0.0702 -0.1404,0.0702 -0.1042,0 -0.0939,-0.0702 -0.2457,-0.0702 -0.0742,0 -0.0462,0.0125 -0.1403,0.0351 l 0,0.1053 L 50.9462,9.85 C 50.7158,9.7041 50.5485,9.7557 50.3348,9.6343 50.1383,9.5227 50.0021,9.4179 49.7569,9.475 L 49.7153,9.3723 49.6166,9.3698 c -0.1663,0 -0.2048,-0.1228 -0.2106,0.1403 l 0.1053,0 -0.0417,0.1028 -0.0987,0.0025 -0.2482,-0.0205 -0.1182,0.0726 -0.1952,0.0181 c -0.0844,0 -0.1032,0.0569 -0.1755,0.1053 L 48.1418,9.7633 48.1073,9.7558 c -0.1784,0 -0.1085,0.141 -0.0351,0.2105 l -0.0702,0 0,0.0702 -0.0702,0 C 47.9836,9.792 47.8912,9.9594 47.6862,9.8611 L 47.5468,9.9332 C 47.4298,9.8699 46.9413,9.7207 46.7736,9.7207 l -0.1755,0 -0.5626,-0.0228 -0.034,-0.0825 -0.0702,0 C 45.7465,9.6195 45.7216,9.6362 45.6855,9.7909 L 45.3828,9.6218 45.3697,9.5452 c -0.0901,0.0433 -0.2833,0.0149 -0.4426,-0.0144 -0.3375,-0.062 -0.2544,0.0846 -0.3998,0.0846 -0.0186,0 -0.077,-0.0505 -0.1052,-0.0702 l 0,0.1404 -0.2723,-0.1216 -0.0085,0.0865 -0.1756,0 -0.0394,0.139 -0.1933,-0.1103 0.0222,-0.0287 -0.2442,0.0192 -0.0015,0.2265 -0.0702,0 L 43.4679,9.8723 43.2921,9.6619 43.2519,9.6838 43.2209,9.895 43.082,9.7013 43.0453,9.7222 43.0789,9.8979 42.7715,10.034 42.563,9.9936 42.5202,9.8987 42.3121,9.9553 42.1424,9.9241 42.1823,9.9173 42.0766,9.6016 l -0.0412,0.0138 0,0.1755 L 41.895,9.6856 41.7841,9.5138 41.5791,9.475 41.4051,9.4321 41.4036,9.5101 41.1942,9.4697 41.193,9.6505 l -0.1053,0 0,0.1404 -0.2688,-0.1295 -0.0513,0.1632 -0.3809,-0.0417 -0.0403,0.147 -0.6268,-0.0735 -0.2113,-0.1357 -0.1404,0 -0.0393,0.139 L 39.2925,9.8796 39.1611,9.5947 39.0872,9.5803 39.012,9.8244 38.7718,9.7878 38.7285,9.9293 38.5607,9.9313 c -0.1374,0 -0.0039,0.053 -0.2106,0.0701 l 0,-0.0701 -0.1404,0 c -0.1664,0 -0.0827,0.174 -0.1404,0 l -0.1752,0.0363 -0.1352,0.0821 0.0101,-0.0521 -0.2261,-0.0663 -0.2458,0 c 0.0092,-0.1098 0.0352,-0.1247 0.0352,-0.2457 l 0,-0.1404 -0.041,-0.5258 -0.0995,-6e-4 0,0.1404 c 0,0.1003 -0.011,0.0642 -0.0702,0.1053 -0.0024,-0.1124 0.0115,-0.1755 -0.1052,-0.1755 -0.0427,0 -0.1053,0.0726 -0.1053,0.1404 l 0,0.1404 0.0406,0.4556 -0.1108,6e-4 0,-0.351 c 0,-0.1274 -0.0081,-0.0341 0.0351,-0.0701 l -0.1488,-0.2611 -0.0819,0.1301 -0.015,-0.1147 -0.1053,0 0,0.3509 c 0,0.0822 0.0105,0.0908 0.0351,0.1404 l -0.059,0.1116 -0.1098,-0.6454 -0.0418,0.0074 0,0.5264 -0.0702,0 0,-0.3509 c 0,-0.158 -0.0438,-0.386 -0.1755,-0.4211 l 0,0.2456 0.0641,0.4573 L 35.9263,9.6817 35.8002,9.452 35.6864,9.6173 35.6416,9.3357 35.5422,9.3347 35.4636,9.0212 35.4018,9.0188 l 0,0.3861 0.0411,0.5258 -0.0885,-0.0969 -0.1986,-0.0413 -0.0628,0.0756 0.0324,0.132 -0.4255,-0.0338 -0.3479,0.115 -0.0031,-0.0799 -0.0702,0 0,0.1404 -0.3509,0.0135 -0.1011,0.0618 -0.3903,-0.0402 -0.0351,-0.1755 -0.1404,0 -0.0159,0.109 -0.1057,-0.1897 c -0.0738,0.0508 -0.089,0.017 -0.089,0.1158 0,0.0187 0.0505,0.0771 0.0702,0.1053 l -0.1404,0 0,-0.1053 c 0,-0.1002 -0.011,-0.0642 -0.0702,-0.1052 l -0.0844,0.1709 c -0.3425,-0.0252 -0.0911,0.0436 -0.0911,0.18 0,0.0971 -0.0271,0.0844 -0.1053,0.1053 l 0,0.0702 0.2519,0.0431 -0.4997,0.083 C 32.4453,10.3664 32.6025,10.532 32.6291,10.212 32.5234,10.1693 32.529,10.0764 32.4906,9.9628 32.4254,9.7699 32.4579,9.8962 32.2782,9.8962 l -0.1405,0 0,-0.0702 -0.2463,-0.0308 7e-4,-0.1447 -0.2506,0.0956 0.0613,-0.4448 -0.0213,-0.107 C 28.9375,9.4228 27.389,9.3411 26.419,9.6905 l 0.0611,-0.3676 -0.1459,0.0856 -0.0227,-0.0387 -0.1053,0 -0.1551,0.1575 -0.0254,-0.0874 -0.1003,0 c -0.2156,0 -0.0808,0.2397 -0.3509,0.2457 l 0.0416,-0.1027 -0.2117,-0.0844 0.1701,-0.1989 0,-0.0702 -0.2458,0.1755 -0.3703,0.3023 0.2469,-0.3574 C 24.7698,9.3629 24.117,10.3202 25.1057,9.1075 L 25.072,9.0744 C 23.8317,10.015 18.1125,11.4445 17.0457,9.5101 15.5722,7.264 24.7424,2.7223 28.8034,1.3686 l 0.0352,-0.035 0.0702,-0.0351 0,-0.0351 L 28.8737,1.2283 28.8386,1.1932 28.8034,1.123 28.7683,1.0528 28.7332,0.9826 28.6981,0.8773 28.663,0.7721 l 0,-0.2808 0.0351,-0.1053 0.0351,-0.0702 0.0702,-0.0351 0.1054,-0.035 0.1053,-0.0351 0.0351,-0.0351 0.1052,-0.0351 0.0702,-0.0351 0.1755,0 0.0702,0.0351 0.2457,0 0.0702,-0.0351 0.0702,-0.0351 0.2808,0 0.0702,0.0351 0.0701,0.0351 0.0352,0.0351 0,0.0702 0.2106,-0.0351 0.1053,-0.0351 0.1404,-0.0351 0.1052,-0.0351 0.2457,0 0.0351,0.0351 0.0702,0.0351 0.0351,0.0702 0.0351,0.035 0.0351,0.0351 0.0351,0.1053 0,0.1755 -0.0351,0.1404 -0.0351,0.1052 -0.0351,0.0702 -0.0351,0.1053 -0.0351,0.0351 -0.0351,0.0702 -0.0351,0.0351 -0.0351,0.0702 -0.0702,0 0,0.0702 0.0351,0.0351 0,-0.0351 0.0351,-0.0351 0.0702,-0.0351 0.0702,-0.0351 0.2106,-0.0351 0.0351,-0.0351 -0.0351,-0.1053 -0.0351,-0.1404 0,-0.3158 0.0351,-0.1404 0.0351,-0.0351 0.0351,-0.0702 0.0351,-0.0351 0.0351,-0.035 0.0351,-0.0351 0.0351,-0.0351 0.0702,-0.0351 0.1755,-0.0351 0.3158,0 0.1405,0.0351 0.1053,0.0351 0.0351,0.0351 0.035,0.0351 0.0352,0 0.035,-0.0351 0.0351,-0.0351 0.0351,-0.0351 0.0351,-0.0351 z"
   id="_379693160"
   style="fill:#813b0f" />
   <path
   d="m 47.5809,13.1598 0.3509,-0.5615 0.1053,0 c 0.0774,0.0017 0.3639,-0.0451 0.3639,0.0357 0,0.4326 -0.5072,0.9316 -0.5018,1.4667 l 0.1028,0.0416 c 0.2971,-0.1989 0.2035,-1.3669 0.7054,-1.3781 -0.1192,0.5116 -0.2841,0.9793 -0.2858,1.5475 l 0.142,-0.0289 c 0.0908,-0.3899 0.0422,-1.5217 0.3608,-1.6371 l 0.5247,-0.0944 c -0.0504,0.2164 -0.3941,0.6765 -0.3941,0.9594 l 0,0.2106 c 0,0.4497 0.2456,0.7956 0.2456,1.3335 0,0.3131 -0.2943,0.9123 -0.5264,0.9123 -0.3426,0 -0.7239,-0.2456 -1.1231,-0.2456 -0.1146,0 -0.1157,0.0182 -0.1755,0.0702 -0.1774,-0.0147 -0.1755,-0.1531 -0.1755,-0.3509 0,-0.0271 0.216,-0.4092 0.2106,-0.6316 -0.0235,-0.6524 -0.0305,-0.9702 0.0702,-1.6494 z m -28.0361,-2.7265 33.1027,0 0.5067,2.4489 c -1.0714,0 -0.5463,-0.2404 -1.4673,-0.2572 l -1.0876,0.0435 -0.4914,0 -0.6394,0.1899 0.0301,0.0298 -0.2205,0.5432 0.0218,0.0275 0.6325,0.0167 -0.0904,1.1919 -0.1125,0.0836 c -0.0076,-0.197 -2e-4,-0.5185 -0.1832,-0.5386 l 0,0.5967 -0.2451,-1.334 0.1477,1.6487 c -0.0063,0.1131 -0.0173,0.2067 -0.0429,0.3169 l 0.1053,0 c 0.3067,0 1.2986,0.2609 1.2986,-0.386 l 0,-0.1403 c 0,-0.2112 -0.1053,-0.2803 -0.1053,-0.4914 l 0,-0.5264 0,-0.4562 0.1403,0 0,0.5966 c 0.1571,-0.0569 0.027,-0.1053 0.1755,-0.1053 l 0.4203,0.008 0.6678,0.0622 -0.0351,0.5615 c -0.3472,0.0556 -0.2164,0.0702 -0.6669,0.0702 l -0.1053,0 0,0.1755 c -0.0503,0.4782 -0.7271,2.6685 -1.1693,1.4626 -0.3135,0.9998 -2.135,0.5448 -2.0948,-0.1642 -0.3834,-0.184 -0.3279,-0.304 -0.737,-0.1405 -0.0668,-0.1785 0,2.6327 0,3.2286 l 1.825,0.0351 -2.5971,-0.012 0.0411,0.01 -0.1835,-3.823 0.0019,-0.2809 c 0.041,-2.0079 0,-1.7401 0,-2.8775 0,-0.0064 0.0096,-0.0206 0.026,-0.0407 l -0.763,0 0,0.146 c -1.8923,0.025 -3.4284,0.0556 -5.1589,0.1487 l -0.6689,-0.0592 -0.2091,7.701 c 0.7144,0 -0.0315,0.02 -0.4913,0 l 0,-1.6142 c 0,-1.502 0.0702,-2.9839 0.0702,-4.5621 0,-0.7808 -0.0243,-1.2853 0.2403,-1.7602 l -1.0864,0 0.0388,0.3916 c -0.3041,-0.0324 -0.3723,-0.0107 -0.6669,-0.0351 l 0,-0.3158 c -0.0861,-0.0071 -0.1411,-0.0248 -0.2008,-0.0407 l -3.3441,0 0,0.146 c -0.1147,0 -0.1291,0.0059 -0.2457,0.035 -0.0262,2.2218 -0.1053,5.1493 -0.1053,6.457 l 0,0.3159 -0.1327,0.0823 0.0625,0.0581 c -0.0787,0.0183 -0.0806,0.0351 -0.1754,0.0351 l -0.1405,0 0,-0.0701 -0.0701,0 0,0.0701 -0.4563,0 c 0,-2.3159 0.0702,-4.6295 0.0702,-6.9484 l 0,-0.181 -1.0166,0 c 0.0149,0.1802 -0.0012,0.3898 -0.0012,0.5671 0,0.2683 0.0691,1.064 -0.0351,1.2282 l -0.1755,-1.5791 c -0.1887,0 -0.5737,0.1053 -0.8775,0.1053 l -0.0777,-0.3215 -3.6778,0 c 0,0.9817 -0.1287,6.631 0.0702,7.1996 l -0.6668,0 -0.0351,-7.194 c 0.0023,-6e-4 0.0063,-0.0025 0.0118,-0.0056 l -0.911,0 c 0.0239,0.0298 0.0431,0.0554 0.0568,0.0758 l 0,0.2457 -0.4561,-0.0372 -0.0352,0.0722 -0.036,-0.2807 c -0.0496,-0.0115 -3.7196,-0.4563 -3.7196,0.2807 l -0.5264,0 c 0.0344,3.7898 -0.0694,3.6404 0.0352,6.2114 l -0.0352,0.7018 -0.8774,0 c -0.0236,-2.2527 -0.2222,-4.6785 -0.0351,-6.9132 0.0092,-0.0341 -0.3585,-0.2009 -0.2167,-0.3565 l -0.1973,0 0,-1.7734 z"
   id="_379693064"
   style="fill:#0e9543" />
   <polygon
   points="40.0522,19.4758 40.0522,21.3703 18.6602,21.3359 18.6602,19.4414 "
   id="_379692944"
   style="fill:#272927" />
   <path
   d="m 27.0837,16.7743 c 0.4616,0.2215 3.0079,0 3.782,10e-5 l 0.0085,-4.2462 -0.0863,-0.357 -0.4398,-0.0066 0.0348,0.0125 -3.229,0 -0.0352,0 0,0.1404 -0.035,0.9476 c -0.013,1.1684 0,2.3482 0,3.5092 z"
   id="_379692824"
   style="fill:#813b0f" />
   <path
   d="m 21.3977,12.5632 0.2107,4.2462 c 0.1097,0.0092 0.1246,0.0351 0.2456,0.0351 l 0.3874,0.0246 2.9075,-0.165 0.0044,-4.1409 -0.036,-0.2807 c -0.5039,-0.1176 -3.7196,-0.434 -3.7196,0.2807 z"
   id="_379433336"
   style="fill:#813b0f" />
   <path
   d="m 34.1734,12.3527 -0.035,0 c -0.0572,1.5425 0.0348,3.0105 0.0351,4.4942 l 3.1237,-0.0726 0.3159,0 0.0029,-0.7719 0.1023,-3.4392 0,-0.3158 c -0.1702,-0.0142 -0.2197,-0.07 -0.4211,-0.0703 l -1.4039,0.0107 -1.7199,-0.0107 0,0.1756 z"
   id="_379433216"
   style="fill:#813b0f" />
   <path
   d="m 36.9111,12.9141 -0.7722,0 c 0,0.2422 0.0471,0.8624 -0.1404,0.9125 -0.0183,-0.0788 -0.0351,-0.0807 -0.0351,-0.1756 l 0,-0.0701 0.0417,-0.6663 -1.0947,-5e-4 -0.0634,0.9831 0.7655,-5e-4 c 0.1061,0 0.0971,0.0414 0.1053,0.1404 l -0.7722,0 c -0.0809,0 -0.1054,0.0244 -0.1054,0.1052 l 0,0.8071 0.7021,0 c 0.1351,0 0.1444,0.0196 0.1755,0.1054 l -0.8074,0 c -0.0808,0 -0.1051,0.0244 -0.1051,0.1053 l 0,0.8422 c 0.16,0 0.9944,0.093 1.088,0.0305 l 0.0388,-0.9076 0.1057,-0.2087 0.9084,0.0666 0.0105,-0.5951 -0.0105,-0.3158 -0.8422,0.0169 -0.0352,0.6147 -0.1054,0 0,-0.4562 0.0393,-0.3152 0.9786,-6e-4 c -0.0583,-0.2499 0.1274,-1.1963 -0.0702,-1.0177 z m -12.5362,0.1148 -0.7722,0 c 0,0.2422 0.0471,0.8623 -0.1404,0.9124 -0.0183,-0.0787 -0.0351,-0.0807 -0.0351,-0.1755 l 0,-0.0701 0.0417,-0.6663 -1.0947,-5e-4 -0.0634,0.983 0.7655,-5e-4 c 0.1061,0 0.0971,0.0414 0.1053,0.1405 l -0.7722,0 c -0.0809,0 -0.1054,0.0244 -0.1054,0.1052 l 0,0.8071 0.7021,0 c 0.1351,0 0.1444,0.0196 0.1755,0.1054 l -0.8074,0 c -0.0808,0 -0.1051,0.0244 -0.1051,0.1053 l 0,0.8422 c 0.16,0 0.9944,0.093 1.088,0.0305 l 0.0388,-0.9076 0.1057,-0.2088 0.9084,0.0667 0.0105,-0.5951 -0.0105,-0.3158 -0.8422,0.0168 -0.0352,0.6148 -0.1054,0 0,-0.4562 0.0393,-0.3152 0.9786,-6e-4 c -0.0583,-0.25 0.1274,-1.1964 -0.0702,-1.0177 z m -0.0703,3.0882 c 0.1517,0 0.1405,-0.7489 0.1405,-0.9124 l -0.8775,0 c -0.0686,0.2943 -0.0351,0.61 -0.0351,0.9124 l 0.7721,0 z m 3.7641,-0.0288 c 0.3369,-0.014 0.376,0.0448 0.8144,-0.0725 l 0,-0.0135 0.0257,0 c 0,-0.3342 0.0629,-0.6175 -0.1424,-0.8407 l -0.6627,0.0845 -0.035,0.8422 z m 0.7774,-3.1577 c -0.093,-0.0517 -0.0775,-0.0029 -0.1737,-0.0029 l -0.5808,-10e-4 -0.0158,0.8432 0.1757,-0.0123 0.5614,0.0123 c 0.003,-0.2827 -0.0115,-0.5599 0.0332,-0.8393 z m -0.7703,1.9622 c 0.3414,0 0.4248,0.0205 0.7721,-0.0702 l -0.035,-0.7369 -0.7722,0 0.0351,0.8071 z m 2.0081,1.123 -0.0169,-0.8909 -0.8424,0 0.0681,0.8775 c 0.3314,-7e-4 0.5085,0.089 0.7912,0.0134 z M 30.03,12.8118 c -0.1359,-0.0757 -0.5796,-0.0036 -0.7545,-0.0039 l -0.0158,0.8431 0.1757,-0.0122 0.5614,0.0122 c 0.003,-0.2826 -0.0115,-0.5599 0.0332,-0.8392 z m -0.7703,1.9622 c 0.3414,0 0.4248,0.0205 0.7721,-0.0702 l -0.035,-0.7369 -0.7722,0 0.0351,0.8071 z m 7.5811,1.2283 c 0.1517,0 0.1405,-0.7489 0.1405,-0.9124 l -0.8775,0 c -0.0686,0.2943 -0.0351,0.6101 -0.0351,0.9124 l 0.7721,0 z"
   id="_379433096"
   style="fill:#ecbd36" />
   <path
   d="m 39.9295,20.1432 0,0.0351 -0.8072,-0.0351 c 0,-2.0593 0.0702,-4.1178 0.0702,-6.1763 0,-0.8864 -0.0316,-1.417 0.364,-1.952 0.2671,-0.3611 0.763,-1.1011 1.2504,-1.1011 1.2409,0 2.4831,-0.035 3.7204,-0.035 0.024,0.2875 0.8443,1.2401 1.1232,1.2633 l -0.0351,8.0713 c -0.3226,-0.0358 -0.6517,-0.057 -0.9833,-0.0694 l -0.0738,-4.247 0.0505,-2.9827 0.0233,7.2286 0.1713,0 C 44.805,19.184 44.7821,18.2383 44.7629,17.3 c 0.0207,0.0334 0.0403,0.0638 0.0452,0.0709 l 0,-3.9304 0,-0.7369 c 0,-0.1232 -0.1558,-0.1404 -0.2808,-0.1404 l -4.317,0 c -0.3518,0 -0.2104,1.3358 -0.2106,1.6844 -4e-4,0.4686 0.0156,1.5089 -0.0376,1.9627 -0.1234,1.0514 -0.0326,2.7706 -0.0326,3.9329 z M 18.6356,12.4229 c -0.0375,2.1213 0.0253,4.2555 0.0245,6.4218 l 0,0.5967 c 0,0.1267 0.0886,0.1053 0.2106,0.1053 0.0156,0.0387 0.0906,0.0599 0.2006,0.0698 l -0.0271,0.0117 0.0756,0.0193 c 0,0.1307 -0.0389,0.1632 -0.0703,0.2808 1.3531,0 2.2412,0.035 4.1065,0.035 -0.1153,0.1574 -3.9783,0.146 -4.287,0.1529 0.1338,0.0931 3.1406,0.2373 3.4372,0.1907 0.2541,-0.04 0.8542,-0.0979 1.1345,-0.0747 l -0.9867,0.1523 -2e-4,0.0443 2.2817,0.061 c 0,0.297 -5.0461,0.1129 -5.5675,0.1129 0.2487,0.216 0.1195,0.2605 -0.0351,0.4913 l 0.2106,0 7e-4,0.0792 4.83,-0.115 c 1.2653,-0.0846 14.5571,0.2466 14.6322,-0.3887 -0.1075,0.009 -0.741,0.3824 -0.5966,0.0703 l -2.2671,0.1322 c -0.5825,0 -3.7596,0.1331 -4.3563,0.1351 l 4.0611,-0.3376 c -0.0156,-0.0212 2.6664,-0.1456 2.2052,-0.1663 -1.8999,-0.0854 -9.6525,-0.0563 -9.8715,-0.0563 l 5.0122,-0.131 c 0.939,0 5.2913,-0.36 5.9182,0.0379 -1.078,-0.0513 -0.8405,-0.0023 0.0352,0.1755 0,-0.1056 0.0999,-0.0712 0.0229,-0.0688 l 0.0428,0.6956 c -0.5591,-0.2094 -1.3148,0.0414 -1.8943,0.1444 5.0144,0.508 10.9836,-0.0969 16.3614,-0.2934 0.0049,-2.0152 0.1889,-8.1795 0.1889,-12.0323 -1.0713,-2.214 -28.752,-2.0852 -34.1309,0.6056 -0.3325,-0.2313 -0.6948,0.3414 -1.0178,0.2104 0,1.404 0.1075,1.7264 0.1158,2.6321 z m 7.1143,-0.2736 c 0.0491,0.1504 -0.0067,0.2713 0.0442,0.4139 -0.0053,2.147 -0.022,4.7985 0.0965,7.0011 -0.8084,0.0053 -1.7674,0.0096 -2.9101,0.0131 -0.3522,0 -0.4411,0.2105 -0.7722,0.2105 l 0,-0.0702 c 0.1489,0 0.2569,-0.0471 0.351,-0.1755 -0.3313,0 -1.5438,-0.0171 -1.6848,0.1094 l 1.1214,0.032 0.0721,0.1394 c -0.8612,-0.0573 -1.9789,0.0061 -2.2914,-0.2242 0.2989,-0.0225 0.5861,-0.0521 0.7086,-0.0521 l -10e-5,-0.0306 -0.4912,-0.0397 -0.0702,-6.6675 c 0,-0.3437 0.7956,-1.2841 1.0881,-1.4389 0.0121,-0.5468 2.9759,-0.386 3.4747,-0.386 0.218,0.6033 1.1581,0.8403 1.1581,1.5792 l 0.1053,0 0,-0.4139 z m 0.7028,7.411 c 0.1135,-2.301 -0.0734,-5.5938 0.1198,-7.3725 0.9219,-0.2463 0.9024,-0.794 2.141,-0.9683 0.9632,-0.1356 3.2488,-0.2335 3.2488,1.5543 0,2.1856 -0.2152,4.412 -0.0351,6.5974 -2.657,0.0543 0.1813,0.1451 -5.4745,0.1891 z m 23.0852,-7.009 2.6094,0 c 0.0036,-0.7396 0.0114,-1.3626 0.0249,-1.7085 -0.1192,0.0301 -0.1585,0.071 -0.3094,0.071 l -3.9662,-0.0624 c -0.3254,0.2001 -0.5135,0.4392 -0.7857,0.6804 -0.4882,0.4333 -0.7234,0.543 -0.7234,1.1718 l 0.2809,0.0702 1.1099,-0.0176 c -0.0467,0.1624 -0.1973,0.4037 -0.2305,0.6455 -0.0444,0.3229 -1.0219,-0.0619 -1.1252,0.0037 -0.04,1.9583 0.0524,3.8609 0.1465,5.8234 l -0.0411,-0.01 c 1.8953,0.0087 3.7905,0.012 5.6858,0.012 0,-1.9273 -0.0685,-3.8417 -0.0702,-5.7555 l -2.8424,0 0,-0.0164 -0.0013,0 -0.0218,-0.0275 0.0231,-0.0569 0.2367,-0.8232 z m -4.7968,3.4228 c 0.0384,0.1369 0.0244,0.2473 0.0048,0.3886 -0.0019,-0.1297 -0.0035,-0.2592 -0.0048,-0.3886 z m -11.8312,3.362 c 0,-2.3859 0.0702,-4.7701 0.0702,-7.159 0.2213,-0.059 0.8689,-0.9005 1.0181,-1.1153 l 2.9831,-0.0427 c 0.4802,0 0.9305,0.9127 1.3587,1.124 0.2328,2.3485 0.0607,4.7768 0.0454,7.1322 -1.8246,0.029 -3.6509,0.0608 -5.4755,0.0608 z"
   id="_379432976"
   style="fill:#813b0f" />
   <path
   d="m 40.9114,20.0683 c -0.0443,-2.1149 -0.0648,-4.2299 -0.0693,-6.347 l 0.5264,0 0.0702,1.7195 0.0702,0 c -0.0091,-0.5381 0,-1.0759 0,-1.6142 l 0.6644,0 0.1077,3.2986 c 0.2814,-0.2059 0.0319,-2.8917 6e-4,-3.4331 0.6328,-0.0322 0.9868,0.0372 1.6181,0.0649 -0.0927,0.7452 -0.0231,1.4957 -0.0041,2.2453 l 0.0701,0 c 0,-0.961 0.3921,-1.9797 0.2469,-2.4175 -0.128,-0.3863 -0.7228,-0.2474 -1.6863,-0.2612 l -1.8889,0.0824 c -0.089,1.1397 -0.0363,2.2953 -0.0411,3.4385 l 0.0242,3.199 c 0.1047,0 0.1947,0.0248 0.2909,0.0248 z m 3.892,0.0746 c 0.0038,-2.247 -0.2466,-4.4595 -0.0655,-6.562 0.0217,-0.254 -0.1232,-0.4391 -0.0702,-0.6668 l -0.0589,2e-4 -0.2305,7.2286 0.4251,0 z m -2.424,-0.1243 c 0.1492,-0.7265 -0.0633,-1.743 -0.0633,-2.5073 -0.3091,0.1119 -0.0701,2.1144 -0.0701,2.5073 l 0.1334,0 z"
   id="_379432880"
   style="fill:#272927" />
   <path
   d="m 18.8692,10.5178 c 1.0024,0 0.4729,7.6744 0.4729,8.9236 -0.1576,0 -0.3153,0 -0.4729,0 0,-2.9746 0,-5.9492 0,-8.9236 z"
   id="_379432784"
   style="fill:#ecbd36" />
   <path
   d="m 25.7945,10.4842 c 0.5012,0 0.2534,7.8357 0.2534,9.0849 -0.0788,0 -0.1576,0 -0.2365,0 0,-2.9746 -0.0169,-6.1105 -0.0169,-9.0849 z"
   id="_379432688"
   style="fill:#ecbd36" />
   <path
   d="m 31.9132,10.5091 c 1.0415,0 0.4913,7.6744 0.4913,8.9236 -0.1638,0 -0.3276,0 -0.4913,0 0,-2.9746 0,-5.9492 0,-8.9236 z"
   id="_379432592"
   style="fill:#ecbd36" />
   <path
   d="m 46.0872,11.3573 c 1.0415,0 0.4914,7.6744 0.4914,8.9236 -0.1638,0 -0.3276,0 -0.4914,0 0,-2.9746 0,-5.9491 0,-8.9236 z"
   id="_379432472"
   style="fill:#ecbd36" />
   <path
   d="m 31.6815,9.1943 0.0213,0.107 C 31.3876,11.5891 44.8716,9.7938 43.8706,9.2093 44.1233,8.0695 39.8437,1.8248 39.8242,1.8248 l -0.1053,0 0,-0.1754 C 39.6225,1.6269 39.5763,1.5792 39.5083,1.5792 c -0.0493,0 -0.2457,0.1539 -0.2457,0.2106 0,0.1189 0.1595,0.2558 0.2121,0.3846 0.2381,0.5827 0.7755,2.7047 0.9924,3.3242 -0.6407,-0.9673 -1.38,-2.7501 -1.38,-3.9194 0,-0.0992 0.6128,0.0429 0.9552,-0.261 1.388,-1.2321 -1.016,-0.9142 -1.0955,-0.6163 -0.1554,-0.0129 -0.351,-0.2362 -0.351,-0.4562 -0.8815,0 0.2308,1.0675 0.2106,1.5441 0,0.5109 0.0697,0.8236 0.1371,1.2317 0.0337,0.2047 0.0383,0.9094 0.0383,1.2248 L 38.9449,4.2586 38.8153,3.8689 C 38.7075,3.8061 38.5958,2.7476 38.5958,2.4214 l 0,-0.1755 0.059,-0.6679 -0.1977,0.0448 -0.09,0.1455 C 38.2632,2.4571 38.2688,2.9056 38.212,3.5852 L 38.1718,3.5797 C 38.0977,2.2799 37.8941,1.663 37.8929,3.4382 c -5e-4,1.0669 9e-4,1.2943 9e-4,2.317 L 37.6779,5.4674 37.1919,3.6146 37.1039,3.2925 C 37.0737,2.8162 36.8832,2.4878 36.6986,2.1238 l 0.2027,1.1349 C 36.7325,3.0572 36.666,2.635 36.5655,2.381 36.5042,2.2261 36.3967,1.7569 36.2699,1.7464 36.6132,2.462 36.5179,3.3373 36.7061,4.1046 36.1858,4.0637 36.1126,2.2176 35.9283,1.5792 L 35.8687,2.4597 35.8231,2.4565 C 35.6912,2.3599 35.788,2.129 35.788,1.895 l 0,-0.3158 c -0.3538,0.0294 -0.4802,1.3 -0.7371,1.3686 l 0,-0.1052 c 0,-0.4238 0.303,-1.0088 0.4562,-1.2985 L 35.3983,1.3489 c -0.2854,0.565 -1.3526,3.0214 -1.4722,3.0316 0.0016,-0.7194 0.3451,-1.096 0.3877,-1.6081 l -0.3874,0.6167 -0.031,-0.0189 0.1888,-0.415 C 34.0075,2.9885 33.8234,3.2806 33.7511,3.3677 32.9114,4.3779 31.857,7.1117 31.857,8.3873 l -0.1053,0 0,0.1402 -0.0702,0 c 0.1798,-0.5242 0.1027,-0.484 0.1058,-0.9475 -0.083,0.1911 1.4351,-5.6123 1.4826,-6.1403 l -0.3249,-9e-4 0,0.0702 -0.0701,0 0,-0.1053 -1.2724,0.1189 c -0.145,0 -5.5914,5.8377 -6.4142,7.3909 l 0.211,-0.0333 c -1.4556,2.3084 6.1387,1.2009 6.2822,0.3141 z M 27.6803,2.1056 c -0.0922,0.0077 -0.795,0.2814 -0.8922,0.3362 -0.134,0.0757 -0.2444,0.1458 -0.3825,0.2142 -3.6892,1.8276 -8.6027,3.8099 -9.2897,5.8715 l -0.0352,0.1404 -0.035,0.2456 -0.0351,0.1755 c 0,1.9998 6.3926,0.386 7.3004,0.386 0.1268,-0.0849 0.1472,-0.0559 0.2661,-0.1198 0.1136,-0.061 0.0888,-0.1218 0.1901,-0.196 0.2893,-0.3131 0.7738,-1.6686 1.9985,-3.1106 0.6949,-0.8181 3.6874,-3.3012 3.6874,-4.4832 0,-0.065 -0.2967,-0.1968 -0.3443,-0.1968 l -0.5411,0 C 29.5274,1.52 28.8702,1.8697 28.6778,2.0525 23.962,6.5337 27.6126,2.7283 27.6803,2.1056 z m 9.6169,-1.5441 0.035,0 0,-0.1755 -0.2106,-0.035 -0.035,0 -0.1755,0.1403 C 36.7356,0.4445 36.728,0.2457 36.6303,0.2457 c -0.122,0 -0.0536,0.0701 -0.1754,0.0701 l -0.0703,0 c -0.3678,0 -0.3366,-0.1582 -0.702,0.0352 C 35.5966,0.2933 35.5271,0.1404 35.4018,0.1404 L 35.269,0.1418 35.2278,0.3903 35.3668,0.351 c -0.0241,0.0427 -0.0351,0.0375 -0.0351,0.1053 l 0.0199,0.1249 0.1433,-0.1523 0.0824,0.0976 c -0.0824,0.1718 -0.1755,0.3219 -0.1755,0.5614 l 0,0.2106 0.0702,0 0,-0.0702 c 0.5006,0.2648 0.481,-0.3739 0.7493,-0.5561 l -0.2121,0.5312 0.4807,-0.4664 0.0241,0.2328 0.2183,-0.2359 0.0244,0.0435 0.0827,-0.0433 0.0383,0.0225 0.0334,-0.0898 0.1199,0.0111 -0.155,0.2346 c 0.2382,-0.0261 0.2598,-0.3732 0.4212,-0.4914 l 0,0.1404 z M 54.9515,8.5977 54.9163,8.5275 54.8812,8.4574 54.8461,8.3873 54.811,8.317 54.7759,8.2819 C 54.429,7.5879 48.675,3.0037 46.0366,1.6844 l -0.0703,-0.035 -0.0702,0 0,-0.0702 c 0.365,0 0.9374,-0.9124 0.4563,-0.9124 0,0.0504 -2.0357,-1.3828 -2.0357,0.9124 -0.2945,0.0981 -0.3165,0.4393 -0.6669,0.386 L 43.1982,1.8649 c 0.0333,0.167 0.8008,0.6545 1.0162,0.8337 0.0306,-0.0512 0.2066,-1.0335 0.2077,-1.0843 0.0806,0.1271 0.0147,0.1076 0.1616,0.2244 0.103,0.0819 0.1157,0.0641 0.1702,0.1808 0.0689,0.1475 2.5927,2.7993 2.6515,2.9473 0.4353,1.0957 -1.7965,-1.4136 -2.5271,-1.9488 0.021,0.9376 1.3924,2.3755 2.046,3.2209 C 46.2823,6.5492 45.0862,4.0829 43.7289,2.7285 43.5318,2.5321 43.343,2.3126 43.109,2.1552 43.0126,2.0904 42.4676,1.6844 42.3863,1.6844 c -0.2269,0 -0.4482,0.7309 -0.5329,0.9128 l -0.0637,-3e-4 -0.0338,-0.316 -0.0013,-0.2454 -0.0702,0 -0.0786,0.5601 C 41.3846,4.9204 44.0734,7.36 44.8617,8.9033 L 44.8284,8.9319 C 43.2573,7.663 44.282,8.8664 44.7489,9.0429 c 0.1227,0.0464 0.187,0.1145 0.2699,0.1864 l 0.1736,-0.0421 0.0018,0.0773 0.1761,-0.0689 c 0.6891,0.5949 9.8625,0.5272 9.5812,-0.5979 z"
   id="_379432336"
   style="fill:#ecbd36" />
   <path
   d="m 21.264,19.8933 c 0,-1.0415 15.1224,-0.4913 17.584,-0.4913 0,0.1638 0,0.3275 0,0.4913 -5.8614,0 -11.7228,0 -17.584,0 z"
   id="_379432240"
   style="fill:#ecbd36" />
   <path
   d="M 18.5659,8.671 C 18.5542,6.6755 23.1903,4.7149 26.6567,2.9223 22.1117,5.2541 18.9984,8.9746 18.5659,8.671 z"
   id="_379432144"
   style="fill:#fbffff" />
   <path
   d="M 20.5089,8.167 C 20.4972,6.1715 25.1333,4.2109 28.5997,2.4183 24.0547,4.7501 20.9414,8.4706 20.5089,8.167 z"
   id="_379432048"
   style="fill:#fbffff" />
   <path
   d="M 23.6826,10.2612 C 23.0168,8.3801 26.753,5.0068 29.4392,2.176 25.911,5.8701 24.1907,10.4061 23.6826,10.2612 z"
   id="_379431952"
   style="fill:#fbffff" />
   <path
   d="M 25.5934,9.7319 C 24.9276,7.8508 28.6638,4.4775 31.35,1.6467 27.8218,5.3408 26.1015,9.8768 25.5934,9.7319 z"
   id="_379431856"
   style="fill:#fbffff" />
   <path
   d="M 31.7471,1.5845 C 32.4129,3.4656 28.6767,6.8389 25.9905,9.6697 29.5187,5.9756 31.239,1.4396 31.7471,1.5845 z"
   id="_379431760"
   style="fill:#fbffff" />
   <path
   d="m 33.8403,10.9443 c -1.4502,-1.3708 0.3374,-6.0764 1.4378,-9.8205 -1.4562,4.8963 -0.9195,9.7178 -1.4378,9.8205 z"
   id="_379431664"
   style="fill:#fbffff" />
   <path
   d="m 32.038,10.0301 c -1.2882,-1.2784 0.9925,-4.746 2.4882,-7.5489 -1.973,3.6631 -1.9635,7.5384 -2.4882,7.5489 z"
   id="_379431568"
   style="fill:#fbffff" />
   <path
   d="M 42.67,9.8817 C 43.7356,8.1944 40.8385,4.0781 38.8452,0.723 41.4685,5.1062 42.1424,9.9105 42.67,9.8817 z"
   id="_379431472"
   style="fill:#fbffff" />
   <path
   d="M 52.2939,8.1533 C 52.5776,6.1781 48.252,3.6037 45.0624,1.3551 c 4.1846,2.9298 6.7616,7.04 7.2315,6.7982 z"
   id="_414716296"
   style="fill:#fbffff" />
   <path
   d="m 51.1937,9.1478 c 0.729,-1.6592 -2.8912,-4.7831 -5.4804,-7.3911 3.4015,3.404 4.9677,7.5051 5.4804,7.3911 z"
   id="_414716200"
   style="fill:#fbffff" />
   <path
   d="M 46.4477,9.3023 C 47.06,7.403 43.2298,4.1369 40.4645,1.3832 c 3.6314,3.5927 5.4793,8.0783 5.9832,7.9191 z"
   id="_414716104"
   style="fill:#fbffff" />
   <path
   d="M 49.0423,9.1672 C 49.8615,7.5477 46.6035,4.9766 44.3,2.7886 c 3.0277,2.8537 4.2412,6.5341 4.7423,6.3786 z"
   id="_414716008"
   style="fill:#fbffff" />
   <path
   d="M 40.212,9.8018 C 41.6821,8.7377 39.964,4.9596 38.9189,1.9594 40.3028,5.8831 39.6952,9.7105 40.212,9.8018 z"
   id="_414715912"
   style="fill:#fbffff" />
   <path
   d="m 37.5444,7.6367 c 1.4701,-0.8818 -0.248,-4.0122 -1.2931,-6.4981 1.3839,3.2511 0.7763,6.4224 1.2931,6.4981 z"
   id="_384354424"
   style="fill:#fbffff" />
   <g
   id="g49">
    <path
   d="m 59.1645,16.7246 0.0593,0.0296 0.1186,0.0889 -0.2093,1.0928 -0.4134,0.1819 c -0.1814,-0.1215 -0.6435,-0.415 -0.9193,-0.415 l -0.1062,0 c 0,-0.1216 -0.0183,-0.2965 0.0049,-0.405 0.2008,-0.1403 0.1687,-0.2039 0.2793,-0.425 0.1506,-0.2249 0.3854,-0.3349 0.3854,-0.7411 l 0,-0.0592 c 0,-0.3733 -0.2965,-0.6787 -0.2965,-0.6818 0,-0.0861 0.2372,-0.3359 0.2372,-0.6521 l 0,-0.0593 c 0,-0.6055 -0.4622,-0.9531 -1.0498,-0.9531 -1.3391,0.0954 -1.5512,0.9992 -0.9665,1.872 -0.0924,0.1379 -0.1779,0.2729 -0.1779,0.5039 l 0,0.2075 c 0,0.3028 0.4873,0.8224 0.8143,0.8441 0.0673,0.0671 0.3421,0.2524 0.3421,0.3119 l 0,0.2372 c -0.1616,0.0376 -0.6499,0.2964 -0.6524,0.2964 -0.103,0 -0.4183,-0.2372 -0.7116,-0.2372 -0.075,-0.3219 -0.1901,-0.5587 -0.2352,-0.9506 -0.0311,-0.2712 0.0385,-0.9761 -0.2393,-0.9761 -0.5779,0 0.0314,1.7145 0.089,1.9564 -0.2556,0 -0.5152,0.1185 -0.5931,0.1185 -0.0329,0 -0.2863,-0.2605 -0.5566,-0.2684 l -0.0661,-0.2354 c 0.2377,-0.1258 0.3855,-0.2911 0.3855,-0.6522 l 0,-0.0889 c 0,-0.4308 -0.2335,-0.9325 -0.7346,-0.9325 -0.3436,0 -0.7236,0.1866 -0.6727,0.5809 -0.0102,0.0474 -0.016,0.0958 -0.016,0.1441 l 0,0.1779 c -0.1997,0.0165 -0.4448,0.1639 -0.4448,0.3853 l 0,0.0889 c 0,0.4464 0.7639,0.3625 1.0201,0.3829 l 0.1067,0.2396 c -0.5092,0.1323 -0.7845,0.876 -0.1186,0.9485 -0.1273,0.1901 -0.2217,0.4544 0.1186,0.5336 -0.023,0.0344 -0.1483,0.2317 -0.1483,0.2668 0,0.1169 0.1105,0.2112 0.2076,0.2371 0.0075,0.3371 0.2811,0.2464 0.3262,0.415 l -0.0297,0.0296 c -0.037,0.0426 -0.0889,0.1014 -0.0889,0.1779 0,0.1925 0.1904,0.2964 0.3854,0.2964 l 0.0297,0 c 0.0905,0 0.1197,-0.0285 0.1836,-0.0611 l 0.2019,0.6836 c -0.2947,-0.1973 -0.941,-0.5434 -1.2454,-0.0889 0.3469,-0.0808 0.5376,-0.3205 1.1519,0.1115 l -0.203,0.1552 c 0.1035,-0.0241 0.0998,-0.0593 0.2075,-0.0593 l 0.1186,0 -3e-4,0.0551 c 0.625,-0.0464 0.7853,-0.0417 1.3644,0.0931 -0.1648,-0.2459 -0.5809,-0.3556 -1.0082,-0.3556 -0.0712,-0.1483 -0.2372,-0.5963 -0.2372,-0.8004 0,-0.2419 0.915,0.1266 1.0081,0.1482 -0.1336,0.1162 -0.6523,0.2315 -0.6523,0.415 0,0.101 0.1651,0.1779 0.2668,0.1779 0.2826,0 0.5433,-0.2964 0.9786,-0.2964 l 0.0297,0 c 0.0896,0 0.1593,0.1577 0.1779,0.2371 l -0.0152,-0.0294 -0.507,0.2611 0.0181,0.0351 c 0.2864,-0.0765 0.2616,-0.2372 0.8303,-0.2372 0.2292,0 0.2865,0.089 0.514,0.0652 l -0.2768,-0.1245 c 0.5263,-0.1225 1.0272,-0.0634 1.4844,0.1173 L 58.9273,20.993 c 0.2995,0 0.5868,-0.2076 0.8599,0.0296 -0.1683,0.0392 -0.3417,0.1027 -0.3855,0.2668 0.2688,-0.1289 0.6341,-0.1185 1.0378,-0.1185 -0.1024,-0.1398 -0.2811,-0.151 -0.5027,-0.1793 -0.1329,-0.017 -0.2619,-0.1562 -0.5055,-0.1764 l 0,-0.3854 0.6228,0 c 0.1337,0 0.2085,-0.0706 0.2372,-0.1778 l 0.2669,0 c 0.2718,0 0.8302,-0.2112 0.8302,-0.4743 0,-0.0958 -0.1076,-0.1482 -0.2075,-0.1482 l -0.0297,0 c -0.2923,0 -0.4754,0.2668 -0.8006,0.2668 0.0268,-0.1002 0.0889,-0.1389 0.0889,-0.2668 0,-0.1178 -0.0903,-0.1978 -0.2,-0.2087 l -0.0372,-0.2063 c 0.2586,-0.0602 0.3085,-0.2641 0.2076,-0.4743 0.1771,-0.1186 0.2372,-0.2384 0.2372,-0.4446 0,-0.3593 -0.2876,-0.5039 -0.6524,-0.5039 l -0.0889,0 c -0.1022,0 -0.1148,0.0219 -0.2236,0.0268 l 0.105,-0.5011 0.1186,-0.415 0.1483,0 c 0.1856,0 0.3113,-0.1478 0.3261,-0.326 0.7912,0 1.5278,-1.0675 1.0675,-1.986 0.1134,-0.1693 0.2373,-0.3726 0.2373,-0.6521 0,-0.6735 -0.6143,-1.245 -1.2751,-1.245 l -0.0297,0 c -0.6197,0 -1.1861,0.4539 -1.1861,1.0671 -0.3,0.0801 -0.6227,0.5794 -0.6227,1.0078 l 0,0.2372 c 0,0.2517 0.1755,0.6574 0.2669,0.8299 -0.0553,0.0825 -0.1186,0.1025 -0.1186,0.2372 l 0,0.0592 c 0,0.3113 0.2382,0.4836 0.4448,0.5929 z m -5.9389,0.2505 c 0.0398,0 0.072,0.0405 0.072,0.0904 0,0.0499 -0.0322,0.0904 -0.072,0.0904 -0.0398,0 -0.072,-0.0405 -0.072,-0.0904 0,-0.0499 0.0322,-0.0904 0.072,-0.0904 z"
   id="_384354280"
   style="fill:#272927;stroke:#272927;stroke-width:0.13;stroke-linecap:round;stroke-linejoin:round" />
    <path
   d="m 60.9225,13.2815 0.0553,-0.0326 c 1.0096,0.702 -0.6385,1.871 -1.1976,0.7976 -0.2233,-0.4287 -0.0218,-0.9961 0.6884,-0.9635 -0.2373,-0.0123 -1.0955,0.4309 -0.4983,1.0443 0.5574,0.5723 1.5191,-0.1324 0.9522,-0.8458 z m -1.8352,6.3198 c -0.1548,-0.1865 -0.4031,-0.3211 -0.6915,-0.3602 0.3436,-0.0188 0.8148,0.396 1.274,0.3699 0.1853,-0.0105 0.5029,-0.0344 0.5029,-0.2483 0,-0.0627 -0.0106,-0.0391 -0.0297,-0.1186 -0.3278,0.1573 -1.2569,-0.2392 -1.364,-0.3853 0.3158,0.0262 1.453,0.5928 1.5408,-0.003 2e-4,-0.0718 -0.3567,0.0779 -0.7434,0.0264 -0.5071,-0.0675 -0.9709,-0.3268 -1.1709,-0.2626 -0.3018,0.1868 -1.1849,0.4074 -1.6429,-0.0869 0.2467,0.133 0.9102,0.3862 1.6309,-0.0592 -0.0439,-0.06 -0.2614,-0.2075 -0.3558,-0.2075 -0.0191,0 -0.3272,0.1482 -0.5041,0.1482 -0.1943,0 -0.3283,-0.089 -0.5338,-0.089 -0.055,0 -0.6202,0.3174 -0.6654,0.3567 0.3023,0 0.461,0.4032 0.9937,0.4474 0.4369,0.0363 1.0014,-0.3891 1.4805,-0.3891 -0.5265,0.3339 -1.1673,0.5278 -1.4732,0.5145 -0.5097,-0.0222 -0.6005,-0.4497 -1.4327,-0.5145 -0.1933,0 -0.9571,-0.2326 -0.8896,-0.3853 0.2977,0.0795 0.3807,0.326 0.9192,0.326 l 0.0297,0 c 0.4753,0 0.9682,-0.5031 1.3344,-0.5335 0,-0.0542 4e-4,-0.2989 -0.0705,-0.2989 -0.3503,0 -0.7045,0.4671 -1.1121,0.5581 -0.4706,0.1051 -0.5173,-0.1999 -0.7745,-0.1999 -0.0953,0 -0.2269,0.0658 -0.3262,0.0889 -0.2678,0.1792 -0.6612,0.4215 -1.1032,0.4215 -0.0784,0.0526 -0.1422,0.0693 -0.1422,0.201 0.097,0.4264 0.5588,0.1574 0.7126,0.0244 0.19,-0.1644 0.3787,-0.3189 0.77,-0.2023 -0.1273,0 -0.2292,0.0152 -0.3141,0.0401 -0.0201,-0.009 -0.0398,-0.0184 -0.059,-0.0281 0.0102,0.0123 0.0211,0.0244 0.0326,0.0365 -0.3799,0.1262 -0.4089,0.4554 -0.9345,0.4554 -0.0319,0.0476 -0.1187,0.1668 -0.1187,0.2372 0,0.1479 0.1413,0.2075 0.2965,0.2075 l 0.089,0 c 0.3038,0 0.3959,-0.2111 0.9243,-0.2111 -0.3658,0.0974 -0.6837,0.3755 -1.0976,0.2922 0.0612,0.1191 0.1477,0.2449 0.3216,0.2449 0.3215,0 0.6318,-0.326 0.9785,-0.326 l 0.0297,0 0.7997,0.0955 c 0.3747,0.0447 0.5884,-0.2237 0.8015,-0.2734 l -0.2043,0.1822 c 0.071,0.3215 0.2544,0.2699 0.5103,0.2207 l -0.4605,-0.1777 c 0.4922,-0.048 0.6946,0.1884 1.0693,0.1869 0.3989,-0.0015 0.8028,-0.2046 1.1609,-0.2046 -0.2664,0.3637 -1.2797,0.4339 -1.6902,0.2371 -0.1432,0.0959 -0.534,0.2668 -0.771,0.2668 -0.6507,0 -0.8544,-0.5045 -1.3936,-0.4446 -0.272,0.0633 -0.2322,0.3833 -0.6228,0.4743 -0.1288,0 -0.1565,-0.0492 -0.2097,-0.033 -0.032,0.0097 -0.1164,0.0093 -0.1164,0.1515 0,0.0833 0.1455,0.2075 0.2668,0.2075 l 0.089,0 c 0.153,0 0.4354,-0.2122 0.5264,-0.3037 0.1301,-0.131 0.2832,-0.327 0.3582,-0.3772 l -0.011,0.2014 c 0.1254,0.1877 0.6304,0.3906 0.9649,0.3906 l 0.1186,0 c 0.2678,0 0.8644,-0.1553 0.8896,-0.3853 0.1864,0.1727 0.4273,0.2304 0.6724,0.2203 0.3687,-0.0153 0.742,-0.1175 0.361,-0.2366 0.2879,-0.0048 1.878,0.557 1.7243,-0.1023 -0.2245,0.2291 -0.6792,0.0793 -1.2474,-0.1423 0.0642,-0.0012 0.6951,0.1641 1.0818,0.0817 0.2479,-0.0529 0.4451,-0.2859 0.1656,-0.473 -0.2673,0.399 -0.915,0.3028 -1.2857,0.0996 -0.026,-0.0142 -0.0578,-0.0309 -0.0931,-0.049 0.0838,0.028 0.1622,0.0613 0.2341,0.0991 z m -1.0926,-2.8902 c -0.1127,0.2971 -0.3058,0.5286 -0.5258,0.5937 -0.2235,0.0665 -0.4199,-0.0549 -0.5331,-0.2927 0.1436,0.105 0.3297,0.1399 0.5328,0.0811 0.2005,-0.0582 0.384,-0.1978 0.5261,-0.3821 z m -4.4089,0.5649 c -0.0093,-0.003 -0.0186,-0.0061 -0.0279,-0.0095 0.0014,0.0071 0.0022,0.0142 0.0022,0.0213 0,0.2382 -0.4293,0.1686 -0.6103,-0.0652 -0.1439,-0.1859 -0.0165,-0.5005 0.2545,-0.5277 l 0.1186,0 c 0.0572,0 0.1186,0.0529 0.1186,0.089 0,0.1624 -0.1112,0.1185 -0.2372,0.1185 -0.0694,0 -0.1186,0.0492 -0.1186,0.1186 l 0,0.0593 c 0,0.0944 0.0956,0.1482 0.1779,0.1482 0.1282,0 0.1195,-0.0593 0.2075,-0.0593 0.0309,0 0.0739,0.0446 0.0859,0.0933 0.0089,-6e-4 0.0179,-0.0014 0.0268,-0.0022 -0.0145,-0.0906 -0.0639,-0.1207 -0.2313,-0.1207 L 53.296,16.9608 c 0.1116,-0.0016 0.2048,-0.0402 0.2048,-0.1473 0,-0.1021 -0.1052,-0.1693 -0.2076,-0.1778 l 0.0283,-0.1782 c 0.0647,0.2609 0.4852,0.3999 0.779,0.2834 0.2303,-0.0913 0.4093,-0.5223 0.2306,-0.7277 0.1161,0.7132 -0.8655,0.9586 -0.9786,0.2668 -0.0143,-0.3416 0.3092,-0.5067 0.6309,-0.4786 0.5567,0.0487 0.6045,0.5107 0.5902,0.9639 0,0.6398 -0.5544,0.6767 -0.9838,0.6411 0,-0.0524 0,-0.0954 -0.004,-0.1304 z m 7.7994,-2.5986 c 0.3404,0.6503 -0.1952,1.8298 -1.1013,1.8298 l -0.2591,0 c -0.7277,0 -1.3532,-0.8218 -1.3532,-1.5542 l 0,-0.2015 c 0,-0.3501 0.3106,-0.8214 0.5758,-0.8922 0.0381,1.4673 2.0022,1.3958 2.1378,0.8181 z m -3.579,0.7593 c 0.2845,0.1217 0.4736,0.3579 0.4736,0.6414 0,0.4395 -0.4542,0.8268 -1.0144,0.8649 -0.56,0.0381 -1.0142,-0.2875 -1.0142,-0.727 0,-0.2135 0.1073,-0.4148 0.2818,-0.5696 -0.1461,0.3389 -0.0369,0.8476 0.0666,0.8614 0.4458,0.1261 -0.1343,-0.5677 0.1028,-0.775 0.0547,-0.0478 0.2155,-0.0127 0.3712,-6e-4 0.2879,0.0223 0.548,-0.1316 0.7326,-0.2955 z m -0.6846,-1.5842 c 0.5601,-0.0381 1.0143,0.2875 1.0143,0.727 0,0.4396 -0.4542,0.8269 -1.0143,0.865 -0.5601,0.0381 -1.0143,-0.2875 -1.0143,-0.727 0,-0.4396 0.4542,-0.8269 1.0143,-0.865 z m 0.1451,6.8737 c 0.0344,0.077 0.0804,0.2964 0.1779,0.2964 0.0242,0 0.2783,-0.1232 0.3855,-0.1482 l -0.1345,-0.2892 c -0.0886,0.0627 -0.1641,0.141 -0.3399,0.141 l -0.089,0 z m -1.453,0.3261 c 0.3338,0 0.5113,-0.3261 0.1186,-0.3261 -0.1142,0 -0.3558,0.0933 -0.3558,0.2075 0,0.0593 0.1232,0.1186 0.2075,0.1186 l 0.0297,0 z m 3.5287,-0.2371 -0.0867,-0.2973 -0.1872,-0.0569 0.078,0.3516 0.1959,0.0026 z m -2.1053,0.1778 0.0889,0 c -0.0229,-0.0857 -0.2111,-0.4743 -0.2965,-0.4743 -0.1117,0 -0.0561,0.0195 -0.2101,0.0434 l 0.2033,0.4761 0.0364,-0.0156 c 0.0695,-0.0161 0.0876,-0.0296 0.178,-0.0296 z m 0.4447,-0.6225 c 0.0356,0.0741 0.1232,0.4886 0.2076,0.4743 l 0.2364,-0.0347 -0.0728,-0.3476 -0.3712,-0.092 z m 0.5047,0.4445 0.0884,2e-4 c 0.2019,0 0.5252,0.1778 0.5931,0.1778 0.0014,0 0.1491,-0.1033 0.1778,-0.1186 -0.0363,-0.1561 -0.0889,-0.3486 -0.0889,-0.5335 l 0,-0.0889 c -0.0841,-0.0196 -0.0507,-0.0297 -0.1186,-0.0297 -0.0452,0 -0.2996,0.2075 -0.7481,0.2092 l 0.0963,0.3835 z m -1.5899,-0.6584 0.2853,-0.0501 -0.129,-0.3549 -0.3264,0.0907 0.1701,0.3143 z m 3.6727,-0.2005 0.003,-0.0338 0.0981,0.2934 c 0.2849,0.0066 0.9587,-0.1722 0.9587,-0.4084 0,-0.0694 -0.0492,-0.1185 -0.1186,-0.1185 l -0.0593,0 c -0.0788,0 -0.2397,0.1695 -0.4088,0.2263 -0.1856,0.0625 -0.3806,0.014 -0.4731,0.041 z m -6.7388,-1.6901 0,0.0592 c 0,0.1956 0.2124,0.3261 0.4151,0.3261 l 0.0297,0 c 0.4918,0 1.0568,-0.5335 1.4826,-0.5335 l 0.2159,-0.0039 -0.127,-0.2926 c -0.5747,0.1253 -1.635,0.8268 -1.6605,0.3557 0,-0.1528 0.0903,-0.1192 0.068,-0.3878 -0.1823,0.0424 -0.4238,0.2702 -0.4238,0.4768 z m 1.0362,-0.2017 c 0.1647,-0.07 0.0907,-0.0283 0.1375,-0.0604 0.1107,-0.076 0.101,-0.1261 -0.2655,-0.2718 l 0.128,0.3322 z m 2.8779,0.2906 0.1186,0 c 0.1512,-0.0698 -0.0773,-0.7536 -0.2668,-0.9485 0,0.1334 0.0275,0.9485 0.1482,0.9485 z m -1.5716,-0.0297 0.0593,0 c 0.0801,0 0.0161,0.0049 0.0775,-0.0084 -0.1876,-0.5432 -0.3304,-0.7848 -0.374,-1.444 -0.0447,0.0514 -0.0636,0.1186 -0.1483,0.1186 -0.0951,0 -0.1403,-0.0825 -0.1528,-0.1715 l 0.1924,0.1393 0.0197,-0.0271 c 0.0248,-0.1061 0.0594,-0.1393 0.0594,-0.2668 l 0,-0.3853 c 0,-0.1408 -0.0748,-0.3854 -0.2076,-0.3854 -0.5272,0.0227 0.301,2.4626 0.4744,2.4306 z m 1.8088,-0.2371 c 0.7553,0.0999 1.2138,0.722 2.0457,0.722 0.491,0 0.6263,-0.259 0.6686,-0.4824 0.0544,-0.2873 -0.093,-0.4769 -0.6943,-0.4762 l -0.0332,0.2663 c 2e-4,0.0424 0.2635,0.0535 0.2965,0.2074 0,0.1162 -0.1103,0.2075 -0.2372,0.2075 l -0.1186,0 c -0.5781,0 -1.3005,-0.8003 -1.9275,-0.8003 l 0,0.3557 z m -1.1564,0 c -0.0352,-0.1318 -0.3879,-0.2629 -0.5634,-0.2668 0.1465,0.4511 0.4148,0.2767 0.5634,0.2668 z m -2.3484,0.1206 0.2866,-0.0654 -0.217,-0.5754 -0.3357,-0.0718 0.2661,0.7126 z m 5.2338,-1.3244 -0.2306,1.2154 c -0.0103,0.2224 0.1319,0.326 0.3211,0.326 l 0.0339,-0.1496 c 0.0825,-0.5991 0.2285,-0.9784 -0.1244,-1.3918 z m 0.9101,-0.2783 c -0.1039,0.0186 -0.153,0.2941 -0.6851,0.1765 0.2202,-0.016 0.7465,-0.0935 0.1827,-0.2078 -0.1105,-0.0223 -0.3002,-0.0893 -0.3931,-0.1406 -0.1698,-0.0935 -0.4824,-0.3446 -0.5278,-0.5395 -0.0777,0.0207 -0.1186,0.0573 -0.1186,0.1482 0,0.3632 0.3466,0.6387 0.7089,0.7632 0.3299,0.1134 0.6698,0.1085 0.833,-0.2 z m -0.9872,-2.8424 c 0,0.3122 0.2648,0.7179 0.5802,0.941 0.5825,0.412 1.6611,0.0583 1.6611,-0.7424 l 0,-0.0568 c 0,-0.5507 -0.5922,-1.1061 -1.0781,-1.1061 l -0.1986,0 c -0.4938,0 -0.9646,0.4433 -0.9646,0.9643 z"
   id="_384354208"
   style="fill:#813b0f;stroke:#272927;stroke-width:0.13;stroke-linecap:round;stroke-linejoin:round" />
   </g>
   <path
   d="m 41.9652,1.5441 c 0,0.2605 0.4784,-0.099 0.534,-0.1679 0.0567,-0.0705 0.2732,-0.5807 0.2732,-0.6743 0,-0.1578 -1.1543,-0.8886 -1.3219,0.2377 -0.0275,0.1844 0.5147,0.3027 0.5147,0.6045 z"
   id="_384354016"
   style="fill:#ecbd36" />
   <path
   d="m 43.2989,0.5264 -0.0351,0.0351 0,0.0702 -0.0315,0.0197 C 43.0705,0.3614 42.9015,0.5269 42.8212,0.8208 42.789,0.9386 42.6718,1.3134 42.6846,1.382 l 0.4396,-0.5743 0.0315,0.0191 -0.3657,0.6014 0.0291,0.025 0.4318,-0.3463 0.0317,0.0328 -0.1595,0.2074 -0.105,0.2672 c 0.2114,-0.0176 1.4636,-1.3244 0.2808,-1.0879 z"
   id="_374625792"
   style="fill:#ecbd36" />
   <path
   d="M 32.5238,0.386 C 32.43,0.386 32.42,0.3354 32.3826,0.2872 L 32.0325,0.2457 c -0.1364,-0.0188 -0.136,0.0655 -0.2357,0.1046 l 0.0471,0.7384 0.0489,0.0029 0.0614,-0.6011 0.0542,-0.0022 0.0592,0.8453 0.1053,0 0,-0.1755 0.1404,0 0,0.1053 C 32.4575,1.2297 32.6457,1.235 32.7719,1.1956 33.0037,1.1231 32.8706,1.0049 33.0854,0.9475 l 0,0.1053 C 33.1608,1.0024 33.296,0.8367 33.296,0.737 l 0,-0.1404 C 33.296,0.492 33.1668,0.4408 33.0931,0.3433 32.9899,0.207 32.9631,0.2106 32.7344,0.2106 32.7073,0.3121 32.6443,0.386 32.5238,0.386 z"
   id="_374625672"
   style="fill:#ecbd36" />
   <path
   d="m 41.5295,21.8979 1.5443,0.0702 c 0.1811,0.015 0.193,0.1118 0.4408,0.1207 0.2007,0.0073 0.3111,-0.0754 0.5558,-0.0296 0.158,0.0295 1.0686,0.0791 1.2141,0.0848 0.8948,0.0353 1.0969,0.4908 2.1063,0.4908 l 0.2818,0.008 0.3851,-0.0431 c -0.0777,-0.2908 -1.7218,-0.264 -1.9655,-0.5966 0.0849,-0.0407 0.1536,-0.0701 0.2808,-0.0701 0.4436,0 1.9532,0.5498 2.1761,0.2456 l 0.013,-0.0449 -1.8985,-0.5505 -0.0098,0.0339 0,-0.0351 c 0.9777,0 1.7151,0.4211 2.4217,0.4211 l 0.0351,0 c 0.0575,0 0.1053,-0.021 0.1053,-0.0701 0,-0.1896 -0.6063,-0.3465 -0.8101,-0.3826 l 0.9154,-0.0737 c 0.1226,-0.0112 0.3462,0.0902 0.4216,0.137 l 0.4208,0.0385 0.1755,0 c 0.0786,0 0.077,-0.0278 0.1403,-0.0702 0.186,0.118 1.2184,0.091 1.5178,0.1669 0.3804,0.0965 0.9901,0.2808 1.255,0.4648 l 0.6163,0.2505 0.0155,-0.04 0,-0.1754 C 53.7339,22.2087 53.4969,22.0576 53.2655,21.9899 53.0101,21.9151 52.8183,21.811 52.5838,21.759 52.0837,21.6483 51.6526,21.4767 51.041,21.4767 c 0.207,-0.1798 1.1179,-0.1387 1.5455,-0.1064 0.3535,0.0267 1.2291,0.3872 1.3676,0.3872 l 0.0702,0 c 0.09,0 0.0849,-0.0085 0.1404,-0.0351 0.1103,0.0738 0.2373,0.1053 0.4212,0.1053 0.1167,0 0.1028,-0.063 0.1034,-0.1679 l -0.5363,-0.1374 0.0117,-0.0457 c -0.2405,0 -0.9428,-0.2365 -0.9827,-0.386 0.1467,-0.0032 0.1714,-0.0287 0.3529,-0.0332 0.2498,-0.0062 0.1278,-0.0439 0.2087,-0.2124 l 0.0702,0 0,0.0702 c 0.0941,-0.0226 0.0661,-0.0351 0.1403,-0.0351 0.3461,0 0.7096,0.2105 0.8775,0.2105 l 0.2457,0 c 0.0948,0 0.0968,-0.0167 0.1755,-0.0351 l -1e-4,-0.1051 -2.3164,-0.4564 c -0.1415,-0.2229 0.0219,-0.6555 -0.1347,-0.842 l -0.0033,1.355 -1.0904,-0.162 -0.1053,0 10e-5,0.0872 -1.6146,-0.017 -0.106,-0.0088 -1.6138,0.1491 -0.6318,0 c -0.121,0 -0.1359,-0.0259 -0.2457,-0.0351 l 0.0016,-0.0991 -0.1468,0.0263 0.1101,-0.1377 0,-0.1755 C 47.246,20.6254 47.2311,20.5994 47.11,20.5994 l -0.2105,0 c -0.1155,0 -0.2808,0.1069 -0.2808,0.1755 0,0.0809 0.0244,0.1053 0.1053,0.1053 l 0.2106,0 c 0.1061,0 0.097,-0.0413 0.1053,-0.1404 l 0.2316,0.0233 -0.2322,0.2177 -0.7384,0.0722 -0.1398,0.0813 -0.6347,0.0215 -0.101,0.0753 -0.0012,-0.078 -0.3147,0.0429 c -0.0023,-0.0995 -0.0663,-0.2807 -0.1053,-0.2807 -0.1616,0 -0.0702,0.1007 -0.0702,0.2105 l 0,0.1053 c 0,0.0984 -0.0422,0.0855 -0.1053,0.1404 0.1079,0.0288 0.1404,0.0682 0.1404,0.2105 l 1e-4,0.1385 -0.3862,0.0019 c -0.1887,-0.0998 -0.0732,-0.0351 -0.2106,-0.0351 l -0.1053,0 0,-0.0702 -0.3166,0.0228 -1.2628,-0.0579 c -0.0626,0.173 -0.4764,0.1055 -0.702,0.1053 -0.3565,-3e-4 -0.5553,0.1053 -0.7019,0.1053 -0.0878,0 -0.2306,-0.0503 -0.3159,-0.0702 l -0.0018,0.0773 -0.1788,-0.038 0.0779,0.1091 0.1359,-0.0611 0.5284,0.0882 z"
   id="_374625552"
   style="fill:#272927" />
   <path
   d="m 49.7461,24.4261 0.1692,0.0845 0.3384,0.2537 -0.5971,3.1173 -1.1794,0.5189 C 47.9597,28.054 46.6416,27.2166 45.8548,27.2166 l -0.303,0 c 0,-0.3468 -0.0522,-0.8457 0.014,-1.1553 0.5727,-0.4001 0.4811,-0.5817 0.7966,-1.2124 0.4297,-0.6415 1.0997,-0.9553 1.0997,-2.1141 l 0,-0.1691 c 0,-1.0647 -0.8459,-1.936 -0.8459,-1.9449 0,-0.2457 0.6767,-0.9582 0.6767,-1.8603 l 0,-0.1692 c 0,-1.7273 -1.3187,-2.7189 -2.9949,-2.7189 -3.8201,0.2722 -4.4253,2.8505 -2.7574,5.3403 -0.2635,0.3934 -0.5075,0.7787 -0.5075,1.4376 l 0,0.5919 c 0,0.8639 1.3903,2.346 2.3232,2.4081 0.1919,0.1914 0.9759,0.72 0.9759,0.8898 l 0,0.6765 c -0.461,0.1074 -1.8541,0.8456 -1.8611,0.8456 -0.2938,0 -1.1935,-0.6765 -2.0302,-0.6765 -0.214,-0.9184 -0.5423,-1.594 -0.6708,-2.7119 -0.0889,-0.7738 0.1097,-2.7846 -0.6827,-2.7846 -1.6487,0 0.0895,4.8909 0.2538,5.5811 -0.7291,0 -1.4698,0.3382 -1.6918,0.3382 -0.094,0 -0.817,-0.7434 -1.588,-0.7659 L 35.8729,26.371 c 0.6779,-0.3586 1.0997,-0.8302 1.0997,-1.8604 l 0,-0.2536 c 0,-1.2291 -0.6661,-2.6604 -2.0956,-2.6604 -0.9803,0 -2.0644,0.5325 -1.919,1.6572 -0.0293,0.1353 -0.0458,0.2733 -0.0458,0.4112 l 0,0.5074 c -0.5697,0.0473 -1.2689,0.4676 -1.2689,1.0993 l 0,0.2537 c 0,1.2733 2.1791,1.0341 2.9102,1.0923 l 0.3043,0.6835 c -1.4527,0.3775 -2.2381,2.4991 -0.3384,2.7059 -0.3631,0.5421 -0.6325,1.2963 0.3384,1.5221 -0.0657,0.0981 -0.423,0.6611 -0.423,0.7611 0,0.3335 0.3153,0.6026 0.5922,0.6765 0.0214,0.9617 0.802,0.7028 0.9305,1.1838 l -0.0846,0.0846 c -0.1055,0.1213 -0.2538,0.2893 -0.2538,0.5074 0,0.5491 0.5432,0.8456 1.0997,0.8456 l 0.0846,0 c 0.2581,0 0.3414,-0.0812 0.5239,-0.1744 l 0.5758,1.9502 c -0.8406,-0.5627 -2.6843,-1.5501 -3.5529,-0.2537 0.9898,-0.2304 1.5337,-0.9141 3.2862,0.3183 l -0.5792,0.4427 c 0.2954,-0.0688 0.2848,-0.1691 0.5922,-0.1691 l 0.3383,0 -0.0011,0.157 c 1.783,-0.1323 2.2403,-0.1189 3.8924,0.2658 -0.4701,-0.7017 -1.657,-1.0147 -2.8762,-1.0147 -0.2029,-0.4228 -0.6767,-1.701 -0.6767,-2.2832 0,-0.6901 2.6105,0.361 2.8761,0.4228 -0.3812,0.3313 -1.861,0.6604 -1.861,1.1839 0,0.2881 0.4711,0.5074 0.7613,0.5074 0.8062,0 1.5497,-0.8456 2.7916,-0.8456 l 0.0846,0 c 0.2557,0 0.4547,0.4499 0.5075,0.6764 l -0.0432,-0.0838 -1.4463,0.745 0.0515,0.0999 c 0.817,-0.2181 0.7463,-0.6765 2.3686,-0.6765 0.654,0 0.8175,0.2537 1.4665,0.1859 l -0.7898,-0.355 c 1.5014,-0.3495 2.9304,-0.181 4.2347,0.3344 l -0.2588,-0.419 c 0.8546,0 1.6742,-0.5921 2.4532,0.0846 -0.4802,0.1118 -0.9747,0.2928 -1.0997,0.761 0.7668,-0.3678 1.8089,-0.3382 2.9607,-0.3382 -0.2922,-0.3987 -0.802,-0.4305 -1.4342,-0.5113 -0.3791,-0.0485 -0.7472,-0.4456 -1.442,-0.5034 l 0,-1.0993 1.7765,0 c 0.3816,0 0.595,-0.2015 0.6767,-0.5074 l 0.7614,0 c 0.7754,0 2.3686,-0.6025 2.3686,-1.353 0,-0.2734 -0.3071,-0.4228 -0.5922,-0.4228 l -0.0846,0 c -0.8339,0 -1.3563,0.7611 -2.284,0.7611 0.0764,-0.2859 0.2538,-0.3961 0.2538,-0.7611 0,-0.3359 -0.2577,-0.5641 -0.5706,-0.5954 l -0.1061,-0.5885 c 0.7375,-0.1716 0.88,-0.7534 0.5921,-1.3529 0.5054,-0.3385 0.6767,-0.6801 0.6767,-1.2685 0,-1.025 -0.8205,-1.4375 -1.861,-1.4375 l -0.2538,0 c -0.2916,0 -0.3275,0.0625 -0.6379,0.0766 l 0.2996,-1.4296 0.3383,-1.1839 0.423,0 c 0.5297,0 0.8882,-0.4218 0.9305,-0.9301 2.257,0 4.3584,-3.0454 3.0453,-5.6657 0.3236,-0.483 0.6768,-1.0627 0.6768,-1.8603 0,-1.9211 -1.7524,-3.5516 -3.6375,-3.5516 l -0.0846,0 c -1.7679,0 -3.3837,1.2948 -3.3837,3.0442 -0.8558,0.2285 -1.7764,1.6529 -1.7764,2.8751 l 0,0.6765 c 0,0.7181 0.5007,1.8755 0.7613,2.3677 -0.1577,0.2354 -0.3384,0.2923 -0.3384,0.6765 l 0,0.1691 c 0,0.8879 0.6797,1.3796 1.2689,1.6913 z m -16.9423,0.7147 c 0.1135,0 0.2055,0.1154 0.2055,0.2578 0,0.1424 -0.092,0.2578 -0.2055,0.2578 -0.1135,0 -0.2055,-0.1154 -0.2055,-0.2578 0,-0.1424 0.092,-0.2578 0.2055,-0.2578 z m 14.1525,10.9543 0.252,5e-4 c 0.576,0 1.4984,0.5073 1.6919,0.5073 0.004,0 0.4254,-0.2948 0.5075,-0.3382 -0.1038,-0.4454 -0.2537,-0.9945 -0.2537,-1.5221 l 0,-0.2537 c -0.2401,-0.0559 -0.1447,-0.0846 -0.3384,-0.0846 -0.1289,0 -0.8546,0.592 -2.1342,0.5968 l 0.2749,1.094 z m -2.6241,-0.2532 c 0.0982,0.2196 0.2294,0.8456 0.5075,0.8456 0.069,0 0.7939,-0.3516 1.0997,-0.4228 l -0.3838,-0.8251 c -0.2525,0.1789 -0.4681,0.4023 -0.9696,0.4023 l -0.2538,0 z"
   id="_374625432"
   style="fill:#272927" />
   <path
   d="m 53.0452,24.0878 c -0.2965,0.0529 -0.4366,0.8389 -1.9544,0.5036 0.6281,-0.0457 2.1295,-0.2669 0.521,-0.5928 -0.3151,-0.0638 -0.8562,-0.2549 -1.1214,-0.4011 -0.4843,-0.2669 -1.376,-0.9831 -1.5056,-1.5391 -0.2218,0.0591 -0.3384,0.1633 -0.3384,0.4228 0,1.0359 0.9889,1.8219 2.0225,2.1772 0.9411,0.3235 1.9106,0.3094 2.3763,-0.5706 z"
   id="_402818536"
   style="fill:#d61a0c" />
   <path
   d="m 50.4489,24.8818 -0.6579,3.4671 c -0.0293,0.6346 0.3762,0.9301 0.9159,0.9301 l 0.0967,-0.4267 c 0.2354,-1.7093 0.652,-2.7912 -0.3547,-3.9705 z"
   id="_402818416"
   style="fill:#813b0f" />
   <polygon
   points="36.3356,28.4733 35.7166,26.832 34.7587,26.6271 35.5179,28.6598 "
   id="_402818296"
   style="fill:#813b0f" />
   <path
   d="m 45.5165,28.3159 c 2.1546,0.2851 3.4625,2.0598 5.8358,2.0598 1.4006,0 1.7867,-0.739 1.9074,-1.3764 0.1552,-0.8195 -0.2654,-1.3605 -1.9808,-1.3584 l -0.0947,0.7596 c 7e-4,0.1211 0.7517,0.1528 0.8459,0.5919 0,0.3313 -0.3147,0.5919 -0.6767,0.5919 l -0.3384,0 c -1.6492,0 -3.7099,-2.2831 -5.4985,-2.2831 l 0,1.0147 z m -3.2991,0 C 42.117,27.94 41.1108,27.566 40.6101,27.5548 c 0.4181,1.2869 1.1833,0.7892 1.6073,0.7611 z m -3.7221,4.82 c -0.7758,0.1807 -0.6623,1.0935 -1.7765,1.353 -0.3676,0 -0.4465,-0.1402 -0.5984,-0.0941 -0.0912,0.0277 -0.3321,0.0265 -0.3321,0.4323 0,0.2375 0.4151,0.592 0.7613,0.592 l 0.2538,0 c 0.4365,0 1.2422,-0.6054 1.5018,-0.8666 0.371,-0.3735 0.8079,-0.9327 1.0219,-1.0759 l -0.0314,0.5745 c 0.3576,0.5355 1.7982,1.1143 2.7525,1.1143 l 0.3383,0 c 0.764,0 2.466,-0.4429 2.5378,-1.0993 0.532,0.4928 1.2191,0.6575 1.9184,0.6286 1.0518,-0.0436 2.1167,-0.3353 1.0297,-0.6751 0.8215,-0.0135 5.3575,1.589 4.919,-0.2918 -0.6404,0.6537 -1.9376,0.2264 -3.5583,-0.4058 0.1831,-0.0035 1.9829,0.4682 3.0861,0.2329 0.7072,-0.1509 1.2696,-0.8154 0.4722,-1.3492 -0.7624,1.1382 -2.6103,0.8637 -3.6678,0.2841 -0.4164,-0.2282 -1.3621,-0.6681 -1.6615,-0.876 0.9871,-0.1375 2.3745,1.1233 3.7255,1.0466 0.5287,-0.03 1.4347,-0.0983 1.4347,-0.7084 0,-0.1788 -0.0303,-0.1114 -0.0846,-0.3382 -0.9352,0.4486 -3.5858,-0.6825 -3.8913,-1.0993 0.901,0.0749 4.145,1.6912 4.3957,-0.0086 6e-4,-0.2049 -1.0176,0.2223 -2.1209,0.0755 -1.4466,-0.1926 -2.7698,-0.9325 -3.3402,-0.7493 -0.8609,0.5329 -3.3802,1.1622 -4.6869,-0.2478 0.7039,0.3793 2.5965,1.1016 4.6526,-0.1691 -0.1253,-0.1709 -0.7457,-0.5919 -1.0151,-0.5919 -0.0545,0 -0.9334,0.4228 -1.4381,0.4228 -0.5542,0 -0.9365,-0.2537 -1.5227,-0.2537 -0.157,0 -1.7693,0.9053 -1.8984,1.0175 0.8625,0 1.3152,1.1503 2.8348,1.2764 1.2466,0.1034 2.8569,-1.11 4.2238,-1.11 -1.5022,0.9523 -3.3303,1.5055 -4.2027,1.4675 -1.4541,-0.0633 -1.7133,-1.2829 -4.0874,-1.4675 -0.5514,0 -2.7304,-0.6638 -2.5378,-1.0993 l 0,-0.1692 c -0.7638,0.5113 -1.8861,1.2025 -3.147,1.2025 -0.2239,0.1499 -0.4059,0.1976 -0.4059,0.5733 0.2767,1.2165 1.5943,0.4491 2.0329,0.0696 0.542,-0.4688 1.0805,-0.9097 2.1968,-0.5769 -2.096,0 -1.7825,1.4375 -3.6375,1.4375 -0.091,0.1358 -0.3384,0.4756 -0.3384,0.6765 0,0.4221 0.4031,0.5919 0.8459,0.5919 l 0.2538,0 c 0.8667,0 1.1293,-0.602 2.6368,-0.602 -1.0437,0.2778 -1.9504,1.0712 -3.1312,0.8335 0.1747,0.3398 0.4214,0.6987 0.9174,0.6987 0.9172,0 1.8024,-0.9302 2.7915,-0.9302 l 0.0846,0 2.2815,0.2725 c 1.0689,0.1276 1.6785,-0.6382 2.2865,-0.7798 l -0.5828,0.5198 c 0.2024,0.9171 0.7258,0.7699 1.4557,0.6296 l -1.3136,-0.507 c 1.404,-0.1371 1.9814,0.5374 3.0504,0.5332 1.1381,-0.0044 2.2903,-0.5837 3.3118,-0.5837 -0.7599,1.0374 -3.6508,1.2379 -4.8218,0.6765 -0.4086,0.2735 -1.5234,0.761 -2.1994,0.761 -1.8564,0 -2.4375,-1.4393 -3.9758,-1.2684 z"
   id="_402818176"
   style="fill:#ecbd36;stroke:#272927;stroke-width:0.13" />
   <path
   d="m 40.3563,28.9924 0.1692,0 c 0.2285,0 0.0458,0.0138 0.2211,-0.024 -0.5353,-1.5497 -0.9427,-2.239 -1.067,-4.1195 -0.1276,0.1467 -0.1815,0.3382 -0.423,0.3382 -0.2715,0 -0.4003,-0.2352 -0.4361,-0.4892 l 0.5491,0.3976 0.0562,-0.0775 c 0.0705,-0.3027 0.1692,-0.3973 0.1692,-0.761 l 0,-1.0993 c 0,-0.4016 -0.2132,-1.0993 -0.5922,-1.0993 -1.5039,0.0646 0.8588,7.0252 1.3535,6.934 z"
   id="_329589504"
   style="fill:#813b0f" />
   <path
   d="m 37.9031,28.9078 0,0.1692 c 0.8493,0.2267 1.0862,0.9301 2.6224,0.9301 l 0.0846,0 c 1.3561,0 2.7622,-1.4352 3.8067,-1.5221 0,-0.1547 0.0012,-0.8526 -0.2009,-0.8526 -0.9995,0 -2.0098,1.3324 -3.1726,1.5921 -1.3427,0.2999 -1.4759,-0.5704 -2.2097,-0.5704 -0.2718,0 -0.6473,0.1878 -0.9305,0.2537 z"
   id="_329589384"
   style="fill:#ecbd36" />
   <path
   d="m 33.6735,28.8233 0,0.1691 c 0,0.5578 0.606,0.9302 1.1843,0.9302 l 0.0846,0 c 1.4032,0 3.0151,-1.5221 4.2296,-1.5221 l 0.6159,-0.0111 -0.3621,-0.8346 c -1.6396,0.3573 -4.6645,2.3586 -4.7372,1.0148 0,-0.4359 0.2577,-0.3403 0.1939,-1.1065 -0.5198,0.1211 -1.209,0.7709 -1.209,1.3602 z m 2.9561,-0.5752 c 0.4699,-0.1997 0.2589,-0.0809 0.3922,-0.1724 0.3159,-0.2167 0.2884,-0.3597 -0.7572,-0.7755 l 0.365,0.9479 z"
   id="_329589288"
   style="fill:#ecbd36" />
   <path
   d="m 54.057,8.8579 c 0.2837,-1.9752 -4.1616,-4.4208 -7.3512,-6.6693 4.1845,2.9297 6.8813,6.9111 7.3512,6.6693 z m -9.2173,20.2191 0.3384,0 c 0.4314,-0.1992 -0.2206,-2.1499 -0.7613,-2.706 0,0.3807 0.0787,2.706 0.4229,2.706 z"
   id="_329589168"
   style="fill:#813b0f" />
   <path
   d="m 52.8978,33.6449 0.0087,-0.0964 0.2798,0.8369 c 0.8129,0.0189 2.7351,-0.4913 2.7351,-1.1649 0,-0.198 -0.1404,-0.3383 -0.3384,-0.3383 l -0.1692,0 c -0.2248,0 -0.6837,0.4836 -1.1661,0.6458 -0.5296,0.1782 -1.086,0.0399 -1.3499,0.1169 z"
   id="_378860384"
   style="fill:#ecbd36" />
   <polygon
   points="43.2343,34.0739 42.8665,33.0615 41.9354,33.3202 42.4206,34.2168 "
   id="_378860264"
   style="fill:#813b0f" />
   <path
   d="m 45.5165,34.8271 c 0.1014,0.2114 0.3513,1.3937 0.5921,1.353 l 0.6743,-0.099 -0.2075,-0.9917 -1.0589,-0.2623 z"
   id="_378860144"
   style="fill:#813b0f" />
   <path
   d="m 44.2476,36.6029 0.2538,0 c -0.0654,-0.2445 -0.6022,-1.353 -0.846,-1.353 -0.3186,0 -0.1599,0.0557 -0.5993,0.1238 l 0.58,1.3581 0.1039,-0.0443 c 0.1982,-0.0462 0.2499,-0.0846 0.5076,-0.0846 z"
   id="_378860024"
   style="fill:#813b0f" />
   <path
   d="m 40.1871,36.772 c 0.9523,0 1.4587,-0.9301 0.3384,-0.9301 -0.3259,0 -1.0151,0.2661 -1.0151,0.5919 0,0.1691 0.3515,0.3382 0.5921,0.3382 l 0.0846,0 z"
   id="_373670400"
   style="fill:#ecbd36" />
   <ellipse
   cx="0"
   cy="0"
   rx="2.5381999"
   ry="2.2708001"
   transform="matrix(1.14,-0.0775182,0,1,43.9182,18.5034)"
   id="_373670304"
   style="fill:#d61a0c" />
   <path
   d="m 45.8713,20.752 c 0.8115,0.3471 1.351,1.0209 1.351,1.8297 0,1.2539 -1.2958,2.3589 -2.8937,2.4675 -1.5977,0.1087 -2.8935,-0.8201 -2.8935,-2.074 0,-0.6092 0.3062,-1.1833 0.8039,-1.625 -0.4166,0.9668 -0.1051,2.4182 0.1902,2.4574 1.2718,0.3599 -0.3833,-1.6194 0.2931,-2.2109 0.156,-0.1364 0.6149,-0.0362 1.0591,-0.0017 0.8211,0.0637 1.5631,-0.3755 2.0899,-0.843 z"
   id="_373670208"
   style="fill:#d61a0c" />
   <path
   d="m 42.8836,16.7403 c -1.1742,1.511 -0.0278,3.5182 2.674,2.63 -3.1872,1.5307 -5.8526,-0.5436 -2.674,-2.63 z"
   id="_373670112"
   style="fill:#272927" />
   <path
   d="m 46.7057,23.6101 c -0.5184,0.7765 -1.4048,1.2993 -2.4113,1.319 -1.023,0.02 -1.9219,-0.4846 -2.4365,-1.2622 0.6553,0.4158 1.5063,0.6607 2.4365,0.6466 0.9184,-0.0138 1.7594,-0.2776 2.4113,-0.7034 z"
   id="_373669992"
   style="fill:#ecbd36" />
   <path
   d="m 33.1659,23.1577 c 0.3225,1.9736 3.1229,1.2735 2.7916,-0.7611 0.5098,0.5861 -7e-4,1.8155 -0.6577,2.076 -0.8383,0.3324 -2.0379,-0.0641 -2.2225,-0.8084 l -0.0805,0.5082 c 0.2921,0.0243 0.5921,0.216 0.5921,0.5074 0,0.3054 -0.2658,0.4155 -0.5843,0.42 l 0.1613,0.5101 c 0.6754,0 0.6768,0.1724 0.6768,0.7611 1.2251,0.1018 2.8066,-0.0035 2.8066,-1.8287 0.0408,-1.2929 -0.0956,-2.6109 -1.6836,-2.7498 -0.9179,-0.0802 -1.8407,0.3908 -1.7998,1.3652 z"
   id="_374570168"
   style="fill:#ecbd36" />
   <path
   d="m 33.7581,26.0327 c 0,-0.1633 -0.1508,-0.3382 -0.2538,-0.3382 -0.2512,0 -0.2263,0.1691 -0.5921,0.1691 -0.2347,0 -0.5076,-0.1534 -0.5076,-0.4228 l 0,-0.1691 c 0,-0.1979 0.1404,-0.3383 0.3384,-0.3383 0.3595,0 0.6767,0.1251 0.6767,-0.3382 0,-0.1029 -0.175,-0.2537 -0.3384,-0.2537 l -0.3383,0 c -0.773,0.0774 -1.1364,0.9751 -0.726,1.5053 0.5163,0.6669 1.7411,0.8654 1.7411,0.1859 z"
   id="_374570072"
   style="fill:#ecbd36" />
   <path
   d="m 36.386,23.4034 c 0.2992,0.8372 0.2209,1.6799 -0.2888,2.2169 -0.518,0.5458 -1.356,0.6435 -2.194,0.3419 0.6461,-0.0361 1.2687,-0.2989 1.7428,-0.7922 0.4681,-0.487 0.7126,-1.1167 0.74,-1.7666 z"
   id="_374569976"
   style="fill:#fbffff" />
   <path
   d="m 34.1583,24.0203 c -0.8178,-0.3322 -0.7865,-1.2445 -0.4932,-1.5771 0.2933,-0.3326 1.2122,-0.8471 2.053,-0.1304 -0.6308,-0.0039 -1.1476,0.1436 -1.419,0.4445 -0.2715,0.3009 -0.3778,0.8385 -0.1408,1.263 z"
   id="_374569880"
   style="fill:#fbffff" />
   <path
   d="m 46.4091,24.3874 c -0.3214,0.8481 -0.8727,1.5081 -1.4999,1.6942 -0.6374,0.1892 -1.1985,-0.1571 -1.5208,-0.8351 0.4092,0.2995 0.94,0.3989 1.5196,0.2309 0.5723,-0.1657 1.0958,-0.564 1.5011,-1.09 z"
   id="_374594448"
   style="fill:#d61a0c" />
   <path
   d="m 39.109,31.5037 c -1.023,-0.0101 -1.9219,0.2423 -2.4365,0.6312 0.6553,-0.208 1.5063,-0.3305 2.4365,-0.3235 1.168,0.0089 2.1269,0.5152 3.2913,0.5038 1.0065,-0.0098 1.8929,-0.2712 2.4113,-0.6595 -0.6519,0.2129 -1.4929,0.3448 -2.4113,0.3517 -1.1788,0.009 -2.1279,-0.4926 -3.2913,-0.5037 z"
   id="_379389584"
   style="fill:#272927" />
   <path
   d="m 42.4437,31.0945 c -1.426,-0.3039 -1.7061,0.0206 -2.4917,0.1305 -0.7856,0.1098 -1.9219,-0.3896 -2.4365,-1.0147 0.6553,0.3342 1.5122,0.5309 2.4365,0.5198 0.9243,-0.0112 1.309,-0.2041 2.4917,0.3644 z"
   id="_374570600"
   style="fill:#272927" />
   <path
   d="m 49.526,32.6326 c -0.5184,-0.6242 -1.4048,-1.0445 -2.4113,-1.0604 -1.023,-0.016 -1.9219,0.3896 -2.4365,1.0147 0.6553,-0.3342 1.5063,-0.5311 2.4365,-0.5198 0.9184,0.0111 1.7594,0.2232 2.4113,0.5655 z"
   id="_374572536"
   style="fill:#272927" />
   <g
   id="g83">
    <path
   d="m 14.6535,17.4417 -0.0571,0.0336 -0.1122,0.0969 0.2843,1.0757 0.425,0.1529 c 0.1725,-0.1337 0.6132,-0.4585 0.8883,-0.4776 l 0.106,-0.0073 c -0.0084,-0.1213 -0.0022,-0.297 -0.0329,-0.4037 -0.2099,-0.126 -0.1823,-0.1917 -0.3079,-0.4046 -0.1658,-0.214 -0.4077,-0.3075 -0.4358,-0.7127 l -0.0041,-0.0591 c -0.0257,-0.3724 0.249,-0.6975 0.2487,-0.7007 -0.0059,-0.0859 -0.2598,-0.3186 -0.2816,-0.6341 l -0.0041,-0.0592 c -0.0419,-0.604 0.3953,-0.9827 0.9814,-1.0233 1.3425,0.0027 1.6166,0.8896 1.0936,1.8007 0.1017,0.1312 0.1963,0.26 0.2123,0.4904 l 0.0143,0.207 c 0.0209,0.3021 -0.4293,0.8541 -0.7541,0.8984 -0.0624,0.0716 -0.3238,0.2754 -0.3197,0.3348 l 0.0164,0.2366 c 0.1638,0.0264 0.6688,0.2508 0.6713,0.2506 0.1027,-0.0071 0.401,-0.2655 0.6936,-0.2857 0.0526,-0.3264 0.151,-0.5706 0.1689,-0.9646 0.0123,-0.2728 -0.1058,-0.9711 0.1713,-0.9903 0.5765,-0.04 0.0871,1.7125 0.0464,1.9578 0.2549,-0.0176 0.5221,0.0827 0.5998,0.0773 0.0329,-0.0023 0.2677,-0.2797 0.5368,-0.3063 l 0.0496,-0.2394 c -0.2457,-0.109 -0.4047,-0.2637 -0.4296,-0.6239 l -0.0062,-0.0887 c -0.0297,-0.4298 0.1686,-0.9465 0.6684,-0.9811 0.3429,-0.0238 0.7349,0.1362 0.7112,0.533 0.0136,0.0466 0.0227,0.0945 0.026,0.1427 l 0.0123,0.1775 c 0.2004,0.0027 0.4551,0.1327 0.4704,0.3536 l 0.0061,0.0888 c 0.0308,0.4452 -0.737,0.4144 -0.9912,0.4524 l -0.0899,0.2464 c 0.5172,0.0968 0.8432,0.8197 0.1839,0.9381 0.1401,0.1807 0.2526,0.438 -0.0815,0.5404 0.0254,0.0327 0.1639,0.221 0.1664,0.2559 0.008,0.1167 -0.0957,0.2184 -0.1907,0.251 0.0158,0.3368 -0.2635,0.2651 -0.2968,0.4365 l 0.0317,0.0275 c 0.0398,0.0399 0.0957,0.095 0.101,0.1713 0.0133,0.192 -0.1695,0.3088 -0.3641,0.3223 l -0.0296,0.0021 c -0.0902,0.0062 -0.1213,-0.0202 -0.1874,-0.0483 l -0.1541,0.6959 c 0.2803,-0.2171 0.9011,-0.6071 1.2363,-0.1748 -0.3517,-0.0566 -0.5585,-0.2825 -1.1415,0.1909 l 0.2133,0.1408 c -0.105,-0.0169 -0.1037,-0.0522 -0.2112,-0.0448 l -0.1183,0.0082 0.0042,0.0549 c -0.6267,-0.0031 -0.7863,0.0127 -1.3548,0.1872 0.1474,-0.2568 0.5549,-0.395 0.9813,-0.4245 0.0607,-0.1528 0.1954,-0.6112 0.1813,-0.8148 -0.0167,-0.2413 -0.9041,0.1895 -0.9955,0.2175 0.1413,0.1066 0.6668,0.1859 0.6794,0.3689 0.007,0.1008 -0.1524,0.1889 -0.2539,0.1959 -0.2819,0.0195 -0.5624,-0.2582 -0.9967,-0.2281 l -0.0296,0.0021 c -0.0894,0.0062 -0.1481,0.1683 -0.1611,0.2488 l 0.0131,-0.0304 0.5238,0.2255 -0.0156,0.0362 c -0.2909,-0.0565 -0.2773,-0.2185 -0.8446,-0.1792 -0.2287,0.0158 -0.2798,0.1085 -0.5084,0.1005 l 0.2676,-0.1432 c -0.5335,-0.0859 -1.0291,0.0076 -1.4727,0.2195 l 0.0803,-0.1528 c -0.2988,0.0207 -0.5998,-0.1665 -0.8558,0.089 0.1706,0.0274 0.3479,0.0787 0.403,0.2394 -0.2771,-0.11 -0.6408,-0.0744 -1.0436,-0.0465 0.0926,-0.1465 0.2701,-0.17 0.4892,-0.2136 0.1314,-0.0261 0.2505,-0.1739 0.4921,-0.2109 l -0.0267,-0.3844 -0.6212,0.043 c -0.1334,0.0092 -0.2129,-0.0561 -0.2489,-0.1611 l -0.2663,0.0185 c -0.2711,0.0188 -0.8429,-0.1534 -0.861,-0.4158 -0.0067,-0.0956 0.0971,-0.1553 0.1968,-0.1622 l 0.0296,-0.002 c 0.2916,-0.0202 0.4927,0.2333 0.8171,0.2108 -0.0336,-0.0981 -0.0983,-0.1324 -0.1072,-0.26 -0.0081,-0.1175 0.0765,-0.2035 0.1852,-0.222 l 0.0228,-0.2084 c -0.262,-0.0422 -0.326,-0.2422 -0.2398,-0.4588 -0.1849,-0.1061 -0.2531,-0.2214 -0.2674,-0.4272 -0.0248,-0.3584 0.2521,-0.5225 0.616,-0.5477 l 0.0888,-0.0062 c 0.1019,-0.007 0.116,0.0139 0.2249,0.0114 l -0.1394,-0.4927 -0.147,-0.4058 -0.1479,0.0102 c -0.1852,0.0128 -0.3208,-0.126 -0.3479,-0.3027 -0.7893,0.0547 -1.5979,-0.9594 -1.2022,-1.9075 -0.1248,-0.1611 -0.2624,-0.3553 -0.2817,-0.6342 -0.0465,-0.6718 0.5268,-1.2844 1.186,-1.3301 l 0.0296,-0.002 c 0.6182,-0.0428 1.2146,0.3708 1.257,0.9826 0.3048,0.0592 0.6612,0.535 0.6908,0.9624 l 0.0164,0.2366 c 0.0174,0.2511 -0.1297,0.6679 -0.2089,0.8464 0.0609,0.0785 0.1255,0.094 0.1348,0.2283 l 0.0041,0.0592 c 0.0215,0.3105 -0.2043,0.4989 -0.4028,0.6222 z m 5.942,-0.1604 c -0.0397,0.0027 -0.0691,0.0453 -0.0656,0.0951 0.0034,0.0498 0.0384,0.0879 0.0781,0.0852 0.0396,-0.0028 0.069,-0.0454 0.0656,-0.0951 -0.0035,-0.0498 -0.0384,-0.088 -0.0781,-0.0852 z"
   id="_374619896"
   style="fill:#272927;stroke:#272927;stroke-width:0.13;stroke-linecap:round;stroke-linejoin:round" />
    <path
   d="m 12.6618,14.1282 -0.0574,-0.0287 c -0.9588,0.7701 0.7662,1.8225 1.2498,0.713 0.1931,-0.4431 -0.0471,-0.9952 -0.7533,-0.9137 0.2358,-0.0287 1.1227,0.3542 0.5693,1.0074 -0.5166,0.6095 -1.5247,-0.0271 -1.0084,-0.778 z m 2.2674,6.1779 c 0.1416,-0.1967 0.38,-0.3481 0.665,-0.4071 -0.3441,0.0051 -0.7855,0.4514 -1.2454,0.4571 -0.1856,0.0023 -0.5041,3e-4 -0.5189,-0.213 -0.0043,-0.0625 0.0079,-0.0397 0.0214,-0.1203 0.3379,0.1342 1.2375,-0.3255 1.3342,-0.4787 -0.3133,0.048 -1.4086,0.6918 -1.5374,0.1035 -0.0052,-0.0717 0.3613,0.0531 0.7435,-0.025 0.5012,-0.1024 0.946,-0.3932 1.1499,-0.3429 0.314,0.1655 1.2102,0.3245 1.633,-0.2002 -0.2369,0.1497 -0.8813,0.4481 -1.6311,0.0536 0.0397,-0.0628 0.2465,-0.2251 0.3407,-0.2316 0.019,-0.0013 0.3366,0.1252 0.5131,0.113 0.1938,-0.0134 0.3214,-0.1114 0.5264,-0.1256 0.0549,-0.0038 0.6406,0.2738 0.6885,0.3099 -0.3017,0.0209 -0.4321,0.4341 -0.9605,0.515 -0.4334,0.0663 -1.0259,-0.319 -1.5039,-0.2859 0.5484,0.2966 1.2011,0.4458 1.5052,0.4114 0.507,-0.0573 0.5681,-0.4901 1.3938,-0.6122 0.1929,-0.0133 0.9388,-0.2982 0.8609,-0.4458 -0.2915,0.0998 -0.3573,0.3515 -0.8945,0.3887 l -0.0296,0.0021 c -0.4742,0.0328 -1.0007,-0.435 -1.3681,-0.4401 -0.0037,-0.0541 -0.021,-0.2981 0.0496,-0.303 0.3496,-0.0242 0.7351,0.4172 1.148,0.4799 0.4768,0.0723 0.5023,-0.2352 0.7589,-0.253 0.0951,-0.0066 0.231,0.05 0.3316,0.0662 0.2795,0.1603 0.6887,0.3748 1.1296,0.3443 0.0819,0.047 0.1467,0.0593 0.1558,0.1906 -0.0673,0.4321 -0.5466,0.1957 -0.7092,0.0736 -0.2009,-0.1508 -0.3999,-0.2919 -0.7822,-0.1485 0.127,-0.0088 0.2297,-8e-4 0.3162,0.0183 0.0194,-0.0105 0.0385,-0.0211 0.0569,-0.0322 -0.0093,0.013 -0.0194,0.0258 -0.03,0.0386 0.3877,0.0997 0.4394,0.4262 0.9638,0.3899 0.0351,0.0452 0.1298,0.1581 0.1347,0.2283 0.0102,0.1476 -0.1266,0.2168 -0.2815,0.2275 l -0.0887,0.0062 c -0.3031,0.0209 -0.4095,-0.1832 -0.9367,-0.1467 0.3717,0.0719 0.708,0.3274 1.1152,0.2156 -0.0529,0.1231 -0.1305,0.2546 -0.3039,0.2666 -0.3208,0.0222 -0.6529,-0.2817 -0.9987,-0.2577 l -0.0296,0.0021 -0.7913,0.1505 c -0.3707,0.0705 -0.6024,-0.1825 -0.8184,-0.2173 l 0.2164,0.1676 c -0.0486,0.3256 -0.2352,0.2868 -0.4938,0.2555 l 0.447,-0.2092 c -0.4943,-0.0139 -0.6798,0.236 -1.0538,0.2604 -0.3981,0.026 -0.815,-0.1487 -1.1722,-0.1239 0.2908,0.3443 1.3066,0.3444 1.7025,0.1198 0.1495,0.0857 0.5512,0.2292 0.7876,0.2128 0.6492,-0.0449 0.8175,-0.5623 1.3596,-0.5398 0.2757,0.0444 0.2581,0.3663 0.654,0.4301 0.1285,-0.0089 0.1527,-0.0598 0.207,-0.0474 0.0325,0.0075 0.1168,0.0012 0.1266,0.1431 0.0057,0.0831 -0.1308,0.2171 -0.2519,0.2255 l -0.0888,0.0061 c -0.1526,0.0106 -0.449,-0.1816 -0.5461,-0.2666 -0.1388,-0.1217 -0.3051,-0.3066 -0.3834,-0.3515 l 0.0249,0.2001 c -0.1121,0.1959 -0.6019,0.4332 -0.9356,0.4563 l -0.1183,0.0082 c -0.2672,0.0185 -0.8731,-0.0951 -0.9141,-0.3229 -0.1741,0.1852 -0.4104,0.2594 -0.6556,0.2662 -0.3689,0.0103 -0.7484,-0.0659 -0.3765,-0.2111 -0.2876,0.0152 -1.835,0.6854 -1.7272,0.0171 0.2398,0.2131 0.6831,0.0322 1.2345,-0.2281 -0.0641,0.0032 -0.6821,0.2118 -1.0735,0.1562 -0.251,-0.0357 -0.4638,-0.2544 -0.1979,-0.4604 0.2942,0.3796 0.9338,0.2388 1.2896,0.0105 0.0249,-0.016 0.0554,-0.0348 0.0894,-0.0553 -0.0817,0.0337 -0.1576,0.0724 -0.2267,0.115 z m 0.8903,-2.9587 c 0.1329,0.2886 0.3416,0.5062 0.5656,0.5559 0.2275,0.0509 0.4151,-0.0837 0.5115,-0.3288 -0.1359,0.1147 -0.3191,0.1623 -0.5258,0.1177 -0.2041,-0.0442 -0.3967,-0.1708 -0.5513,-0.3448 z m 4.4374,0.2589 c 0.0091,-0.0036 0.0182,-0.0074 0.0272,-0.0114 -10e-4,0.0072 -0.0012,0.0144 -7e-4,0.0214 0.0164,0.2376 0.4399,0.1385 0.6043,-0.1072 0.1307,-0.1953 -0.0181,-0.5005 -0.2903,-0.5088 l -0.1183,0.0082 c -0.0572,0.0039 -0.1147,0.0609 -0.1122,0.0969 0.0112,0.162 0.1191,0.1106 0.2448,0.1019 0.0693,-0.0048 0.1217,0.0409 0.1265,0.1101 l 0.0041,0.0591 c 0.0066,0.0942 -0.0852,0.1545 -0.1672,0.1602 -0.128,0.0088 -0.1233,-0.0509 -0.2112,-0.0448 -0.0307,0.0021 -0.0706,0.0495 -0.0792,0.0989 -0.0089,10e-5 -0.0179,-1e-4 -0.0269,-3e-4 0.0082,-0.0914 0.0554,-0.1248 0.2224,-0.1364 l 0.0441,-0.1823 c -0.1115,0.0061 -0.2071,-0.0259 -0.2145,-0.1327 -0.0071,-0.1019 0.0932,-0.1762 0.1947,-0.1918 l -0.0404,-0.1758 c -0.0466,0.2648 -0.4565,0.4325 -0.7577,0.3366 -0.236,-0.0752 -0.4443,-0.4928 -0.2802,-0.7101 -0.0666,0.7195 0.9296,0.8965 0.9946,0.1986 -0.0093,-0.3418 -0.3434,-0.4841 -0.6624,-0.4339 -0.552,0.0871 -0.5678,0.5513 -0.5222,1.0024 0.0442,0.6383 0.5998,0.6368 1.0258,0.5715 -0.0037,-0.0522 -0.0066,-0.0951 -0.0051,-0.1303 z m -7.6836,-1.9612 c -0.0597,0.1523 -0.1119,-0.1338 -0.1315,0.0305 -0.0018,0.0153 -0.0034,0.0304 -0.0049,0.0453 -0.0727,-0.045 -0.1226,-0.1015 -0.1403,-0.1681 -0.2946,0.6722 0.3211,1.8119 1.2251,1.7493 l 0.2585,-0.0179 c 0.726,-0.0503 1.2932,-0.9133 1.2426,-1.644 l -0.0139,-0.201 c -0.0242,-0.3493 -0.3666,-0.798 -0.6362,-0.8503 0.0051,1.1415 -1.2777,1.3959 -1.8325,1.1826 0.0069,-0.0422 0.0177,-0.0843 0.0331,-0.1264 z m 3.3462,0.4179 c -0.2754,0.141 -0.4477,0.3897 -0.4281,0.6725 0.0303,0.4385 0.5102,0.7936 1.0717,0.7928 0.5613,-6e-4 0.9919,-0.3568 0.9616,-0.7953 -0.0148,-0.213 -0.1358,-0.4064 -0.3205,-0.5488 0.1691,0.328 0.0953,0.8431 -0.007,0.864 -0.436,0.1566 0.0948,-0.5756 -0.156,-0.7661 -0.0579,-0.0439 -0.2159,0.0022 -0.3704,0.0251 -0.2856,0.0421 -0.5557,-0.0935 -0.7513,-0.2442 z m 0.5736,-1.6277 c -0.5615,7e-4 -0.9921,0.3569 -0.9617,0.7954 0.0303,0.4384 0.5102,0.7935 1.0716,0.7928 0.5614,-7e-4 0.992,-0.3569 0.9617,-0.7954 -0.0304,-0.4385 -0.5103,-0.7935 -1.0716,-0.7928 z m 0.3301,6.8673 c -0.029,0.0792 -0.0598,0.3013 -0.157,0.308 -0.0241,0.0017 -0.2862,-0.1037 -0.3948,-0.1212 l 0.1142,-0.2978 c 0.0926,0.0564 0.1734,0.1293 0.3488,0.1172 l 0.0888,-0.0062 z m 1.472,0.2249 c -0.333,0.023 -0.5326,-0.2899 -0.1408,-0.3171 0.1139,-0.0079 0.3614,0.0685 0.3693,0.1824 0.0041,0.0592 -0.1147,0.1268 -0.1989,0.1326 l -0.0296,0.0021 z m -3.5366,0.0072 0.0659,-0.3025 0.1829,-0.0697 -0.0536,0.3561 -0.1952,0.0161 z m 2.1126,0.032 -0.0888,0.0061 c 0.017,-0.087 0.1779,-0.4877 0.2631,-0.4936 0.1114,-0.0077 0.0573,0.0156 0.2126,0.0288 l -0.17,0.489 -0.0374,-0.013 c -0.0704,-0.0114 -0.0894,-0.0236 -0.1795,-0.0173 z m -0.4868,-0.5903 c -0.0303,0.0764 -0.089,0.4959 -0.1742,0.4875 l -0.2382,-0.0183 0.0485,-0.3518 0.3639,-0.1174 z m -0.4727,0.4783 -0.0881,0.0063 c -0.2015,0.0139 -0.5118,0.2137 -0.5794,0.2184 -0.0014,10e-5 -0.1559,-0.0928 -0.1857,-0.106 0.0255,-0.1583 0.0647,-0.3539 0.0519,-0.5384 l -0.0062,-0.0888 c 0.0826,-0.0253 0.0486,-0.033 0.1163,-0.0377 0.0451,-0.0032 0.3132,0.1863 0.7608,0.157 l -0.0696,0.3892 z m 1.5406,-0.7667 -0.288,-0.0302 0.1041,-0.363 0.3319,0.0679 -0.148,0.3253 z m -3.6777,0.0538 -0.0054,-0.0335 -0.0776,0.2994 c -0.2838,0.0263 -0.9683,-0.1056 -0.9846,-0.3411 -0.0048,-0.0693 0.0409,-0.1217 0.1101,-0.1265 l 0.0592,-0.0041 c 0.0786,-0.0055 0.2508,0.1525 0.4234,0.1976 0.1895,0.0495 0.3807,-0.0124 0.4749,0.0082 z m 6.6059,-2.1517 0.0041,0.0591 c 0.0135,0.1951 -0.1894,0.34 -0.3916,0.354 l -0.0296,0.0021 c -0.4907,0.0339 -1.0912,-0.4593 -1.5159,-0.4299 l -0.2157,0.011 0.1064,-0.3006 c 0.5821,0.0853 1.6883,0.7119 1.6812,0.2402 -0.0106,-0.1525 -0.0984,-0.1128 -0.0946,-0.3823 0.1847,0.0298 0.4414,0.2403 0.4557,0.4464 z m -1.0476,-0.1296 c -0.1692,-0.0584 -0.0925,-0.022 -0.1414,-0.0507 -0.1157,-0.0682 -0.1095,-0.1188 0.246,-0.2896 l -0.1046,0.3403 z m -2.851,0.4887 -0.1184,0.0082 c -0.1557,-0.0592 0.0251,-0.7571 0.2007,-0.9647 0.0092,0.1331 0.038,0.9482 -0.0823,0.9565 z m 1.5658,-0.1381 -0.0592,0.0041 c -0.0799,0.0055 -0.0157,0.0059 -0.0779,-0.0031 0.1497,-0.5549 0.2754,-0.8058 0.2734,-1.4664 0.0481,0.0482 0.0716,0.1139 0.1561,0.108 0.0949,-0.0065 0.1343,-0.0919 0.1406,-0.1816 l -0.1824,0.1523 -0.0215,-0.0257 c -0.032,-0.1041 -0.0688,-0.1348 -0.0776,-0.262 l -0.0266,-0.3844 c -0.0097,-0.1405 0.0479,-0.3896 0.1804,-0.3988 0.5275,-0.0138 -0.1301,2.4775 -0.3053,2.4576 z m -1.8209,-0.1116 c -0.7466,0.1519 -1.161,0.8041 -1.9909,0.8616 -0.4898,0.0339 -0.6427,-0.2151 -0.7004,-0.4351 -0.0741,-0.2828 0.0599,-0.4822 0.6598,-0.523 l 0.0515,0.2633 c 0.0027,0.0424 -0.2591,0.0717 -0.2814,0.2275 0.008,0.1158 0.1243,0.1994 0.2509,0.1906 l 0.1184,-0.0082 c 0.5767,-0.0399 1.242,-0.8882 1.8675,-0.9316 l 0.0246,0.3549 z m 1.1537,-0.0799 c 0.026,-0.1339 0.3688,-0.2891 0.5436,-0.3051 -0.1151,0.4601 -0.3947,0.3046 -0.5436,0.3051 z m 2.3511,-0.042 -0.2905,-0.0454 0.1767,-0.589 0.33,-0.0948 -0.2162,0.7292 z m -5.3129,-0.9596 0.3141,1.1965 c 0.0256,0.2212 -0.1091,0.3344 -0.2978,0.3475 l -0.0441,-0.1469 c -0.1237,-0.592 -0.2956,-0.9603 0.0278,-1.3971 z m -0.9271,-0.2148 c 0.105,0.0114 0.173,0.2828 0.6956,0.1288 -0.2207,-7e-4 -0.7511,-0.0417 -0.1965,-0.1947 0.1086,-0.0299 0.2932,-0.1098 0.3824,-0.1674 0.1629,-0.105 0.4574,-0.3771 0.4893,-0.5747 0.079,0.0153 0.1223,0.0489 0.1285,0.1397 0.0251,0.3622 -0.3017,0.6611 -0.6545,0.8103 -0.3213,0.136 -0.6606,0.1545 -0.8448,-0.142 z m 0.7885,-2.9038 c 0.0215,0.3115 -0.2146,0.7345 -0.5138,0.9789 -0.5526,0.4512 -1.6531,0.1729 -1.7085,-0.6259 l -0.0039,-0.0567 c -0.038,-0.5493 0.5144,-1.1443 0.9991,-1.1779 l 0.1982,-0.0137 c 0.4926,-0.0341 0.9929,0.3756 1.0289,0.8953 z"
   id="_374628224"
   style="fill:#813b0f;stroke:#272927;stroke-width:0.13;stroke-linecap:round;stroke-linejoin:round" />
   </g>
   <path
   d="m 54.7614,14.6037 0.1577,-0.0931 c 2.8803,2.0028 -1.8215,5.3377 -3.4165,2.2754 -0.6369,-1.2228 -0.0621,-2.8415 1.9638,-2.7487 -0.6768,-0.0351 -3.1252,1.2294 -1.4215,2.9792 1.5901,1.6328 4.3337,-0.3776 2.7165,-2.4128 z m -4.5325,1.3753 c 0,0.8907 0.7555,2.0481 1.6551,2.6845 1.6617,1.1753 4.7389,0.1663 4.7389,-2.118 l 0,-0.1619 c 0,-1.571 -1.6895,-3.1554 -3.0756,-3.1554 l -0.5666,0 c -1.4087,0 -2.7518,1.2645 -2.7518,2.7508 z"
   id="_374594544"
   style="fill:#d61a0c" />
   <path
   d="m 54.2064,23.354 c -0.8617,0.3594 -1.8893,0.3038 -2.7383,-0.2373 -0.8628,-0.5499 -1.3318,-1.4679 -1.3296,-2.4003 0.3153,0.7091 0.8883,1.3843 1.6706,1.8878 0.7723,0.4971 1.6187,0.7433 2.3973,0.7498 z"
   id="_369347824"
   style="fill:#fbffff" />
   <path
   d="m 48.34,18.7973 0,0.5747 c 0,2.0896 1.7844,4.4338 3.8605,4.4338 l 0.7392,0 c 2.5849,0 4.1126,-3.3647 3.1416,-5.2199 -0.281,1.4564 -5.8389,1.6698 -6.0985,-2.3339 -0.7567,0.2019 -1.6428,1.5465 -1.6428,2.5453 z"
   id="_374621072"
   style="fill:#d61a0c" />
   <path
   d="m 55.312,18.9033 c 0.2001,0.4217 0.2922,-0.4029 0.3804,0.0607 0.4362,2.2912 -0.6381,3.4239 -1.6084,4.2338 -0.4739,0.3956 -1.1443,0.608 -1.2118,-0.105 1.4984,-0.7542 3.1555,-2.5886 2.4398,-4.1895 z"
   id="_374621096"
   style="fill:#272927" />
   <path
   d="m 50.5076,16.5117 c -1.1742,2.0468 -0.0278,6.4756 2.674,6.5433 -3.1872,0.8114 -5.8526,-4.701 -2.674,-6.5433 z"
   id="_379391208"
   style="fill:#ecbd36" />
   <path
   d="m 44.6512,16.6467 c 0.8718,0.1666 1.5774,0.54 1.8188,1.0273 0.2454,0.4952 -0.0483,0.9878 -0.693,1.3236 0.2608,-0.3644 0.3118,-0.8051 0.0926,-1.2559 -0.2162,-0.445 -0.6592,-0.8249 -1.2184,-1.095 z"
   id="_379391400"
   style="fill:#fbffff" />
   <path
   d="m 49.1363,13.3858 c -0.0116,-1.0414 2.2774,-0.5168 2.649,-0.5209 0.0019,0.1638 0.0037,0.3275 0.0055,0.4913 -0.8848,0.0099 -1.7697,0.0198 -2.6545,0.0296 z"
   id="_368811288"
   style="fill:#ecbd36" />
   <path
   d="m 56.175,17.5 c -0.5184,0.7765 -1.4048,1.2993 -2.4113,1.319 -1.023,0.02 -1.9219,-0.4846 -2.4365,-1.2622 0.6553,0.4158 1.5063,0.6607 2.4365,0.6466 0.9184,-0.0138 1.7594,-0.2776 2.4113,-0.7034 z"
   id="_373613728"
   style="fill:#ecbd36" />
   <path
   d="m 54.7281,11.8525 c 0.0193,0.009 0.0558,0.0165 0.1094,0.0226 0.0469,0.0053 0.0823,0.017 0.106,0.0351 0.1622,0.0424 0.3407,0.1189 0.5354,0.2297 0.1674,0.1004 0.3344,0.201 0.5008,0.3017 -0.1975,-0.0101 -0.3821,0.0136 -0.5538,0.0711 -0.1383,0.0463 -0.2792,0.0374 -0.4222,-0.027 C 54.8608,12.4213 54.7646,12.321 54.7148,12.185 54.681,12.0925 54.6695,11.9998 54.6805,11.9069 l 0.0476,-0.0544 z m 0.2843,-0.3771 c 0.1285,-0.047 0.2492,-0.0537 0.3621,-0.0201 0.0941,0.0287 0.1985,0.0917 0.3133,0.1889 0.1008,0.0852 0.1875,0.2269 0.2601,0.4252 0.0072,0.0198 0.0172,0.0499 0.0303,0.0901 0.0131,0.0402 0.0235,0.0701 0.0307,0.0899 0.0056,0.0151 0.0176,0.0348 0.0368,0.0594 0.0191,0.0246 0.0316,0.0441 0.0368,0.0583 l -0.0108,0.0055 c -0.0142,0.0052 -0.0339,-0.0047 -0.0591,-0.0297 -0.022,-0.0252 -0.0554,-0.0622 -0.1001,-0.1112 -0.1187,-0.1225 -0.2534,-0.2258 -0.4041,-0.3098 -0.1103,-0.0614 -0.2111,-0.1042 -0.3025,-0.1286 -0.0593,-0.0158 -0.1656,-0.0342 -0.3189,-0.0551 -0.016,-0.0028 -0.0463,-0.0168 -0.091,-0.0423 -0.0079,-0.042 0.0162,-0.0873 0.0724,-0.1357 0.045,-0.0379 0.093,-0.0662 0.144,-0.0848 z m 0.6077,1.2167 c 0.1643,-0.0601 0.3211,-0.0763 0.4705,-0.0485 -0.1108,0.0748 -0.1946,0.1515 -0.2515,0.2302 -0.0247,0.0347 -0.0826,0.1603 -0.1736,0.3768 -0.0756,0.1797 -0.1389,0.2789 -0.1899,0.2975 -0.0661,0.0242 -0.1309,0.0169 -0.1944,-0.022 -0.0583,-0.0364 -0.0999,-0.0887 -0.1248,-0.1567 -0.0542,-0.1482 -0.0261,-0.2892 0.0846,-0.4228 0.0922,-0.1109 0.2185,-0.1957 0.3791,-0.2545 z m 0.7513,-1.4797 c 0.0671,-0.0245 0.1358,-0.0314 0.2061,-0.0208 0.084,0.0132 0.1373,0.0504 0.1597,0.1118 0.0101,0.0274 0.0121,0.0577 0.006,0.091 -0.0073,0.0123 -0.0838,0.1147 -0.2296,0.3073 -0.0928,0.1239 -0.1495,0.2368 -0.17,0.3385 -0.0066,0.0377 -0.017,0.094 -0.0314,0.1689 -0.0145,0.0599 -0.042,0.1091 -0.0825,0.1475 l -0.0134,-0.0015 c 0.0021,-0.1433 -0.0044,-0.2356 -0.0196,-0.2772 -0.0058,-0.0161 -0.0161,-0.0396 -0.03,-0.0704 -0.014,-0.0308 -0.0235,-0.054 -0.0294,-0.0701 -0.0567,-0.1548 -0.0697,-0.2957 -0.0391,-0.4226 0.0358,-0.148 0.1269,-0.2488 0.2732,-0.3024 z m -0.1284,1.4702 c 0.0075,0.0058 0.0126,0.0125 0.0154,0.02 0.0038,0.0104 5e-4,0.0277 -0.01,0.0519 -0.0128,0.0293 -0.0197,0.0484 -0.0207,0.0574 -0.0134,0.1419 0.0151,0.3002 0.0854,0.4747 l -0.0176,0.0177 0.0232,0.0107 c 0.0171,0.073 0.0174,0.15 10e-4,0.231 -0.0166,0.0863 -0.0489,0.156 -0.097,0.2089 -0.0419,0.0464 -0.1101,0.0869 -0.2045,0.1215 -0.0774,0.0283 -0.1547,0.0309 -0.2317,0.0077 -0.0841,-0.0249 -0.1401,-0.0756 -0.1681,-0.1521 -0.0066,-0.018 -0.0103,-0.0369 -0.0112,-0.0569 0.0069,-0.0133 0.0583,-0.0776 0.1542,-0.193 0.0713,-0.0861 0.1475,-0.213 0.2285,-0.3808 0.0987,-0.2043 0.167,-0.3364 0.2051,-0.3963 0.0118,-0.0086 0.0229,-0.0149 0.0333,-0.0187 0,0 0.0049,-0.0012 0.0147,-0.0037 z m 0.6589,-1.2451 c 0.0926,0.0421 0.1587,0.1175 0.1985,0.2261 0.0404,0.1105 0.0402,0.2139 -1e-4,0.31 -0.0403,0.0961 -0.1149,0.1642 -0.2245,0.2043 -0.0453,0.0166 -0.1153,0.0272 -0.2095,0.0317 -0.0942,0.0045 -0.1491,0.0096 -0.1651,0.0155 -0.0161,0.0058 -0.048,0.0341 -0.0959,0.0848 l -0.0179,-0.0095 c -0.0041,-0.052 0.0633,-0.1752 0.2021,-0.3695 0.1744,-0.2459 0.2642,-0.3735 0.2699,-0.3831 0.0056,-0.0095 0.0103,-0.0316 0.0138,-0.0661 0.0022,-0.0232 0.0084,-0.0368 0.0188,-0.0406 l 0.0099,-0.0036 z m -0.549,1.0539 c 0.242,0.0848 0.4746,0.2433 0.6977,0.4754 0.0462,0.0473 0.0989,0.1153 0.1581,0.2039 0.0619,0.093 0.103,0.1674 0.1234,0.2231 0.0242,0.0661 0.0336,0.1312 0.0282,0.1953 -0.0188,0.0219 -0.0655,0.0465 -0.1401,0.0738 -0.0094,0.0034 -0.0232,0.0095 -0.0413,0.0188 -0.018,0.0093 -0.0312,0.0157 -0.0397,0.0188 -0.0094,0.0035 -0.015,0.0029 -0.0167,-0.0019 -8e-4,-0.005 10e-5,-0.0113 0.0028,-0.0187 0.0144,-0.0395 0.0314,-0.1014 0.0509,-0.1856 -0.2276,-0.42 -0.518,-0.7131 -0.8712,-0.8794 0.0111,-0.0105 0.0206,-0.03 0.0283,-0.0585 0.0085,-0.0353 0.0151,-0.057 0.0196,-0.065 z"
   id="_373613848"
   style="fill:#0e9543" />
  </g>
 </g>
</svg>